<svg width="1364" height="963" viewBox="0 0 1364 963" fill="none" xmlns="http://www.w3.org/2000/svg">
<path d="M1079.9 409.649L1079.54 433.114L1109.85 478.56L1120.7 518.111L1139.81 553.289L1147.29 555.837L1153.68 550.703L1156.65 542.261L1129.32 513.319L1130.06 498.297L1136.05 495.749L1137.54 486.964L1084.01 413.338L1079.9 409.649Z" fill="#F2F2F2"/>
<mask id="path-2-inside-1_2013_154" fill="white">
<path d="M1154.75 218.586L1161.47 241.816L1174.92 245.675L1188.37 224.394L1180.69 209.875L1183.56 197.304H1203.73L1198.91 206.971L1200.82 241.816L1172.02 313.417L1174.88 328.891L1173.93 355.026L1227.68 433.389L1238.23 436.293L1239.18 372.448L1249.73 362.782L1238.19 337.641L1247.78 326.981L1226.65 298.937L1215.11 299.892L1211.29 253.47L1241.06 245.713L1242.97 232.15L1258.33 228.291L1266.96 236.047L1277.5 193.484L1295.73 162.535L1310.13 154.779L1322.63 155.734V141.215L1302.45 137.357L1274.6 114.126L1288.05 98.6522L1276.51 72.5181L1286.1 62.8516L1297.64 78.3257L1326.45 88.9856L1358.12 91.8894L1361.98 78.3639L1345.66 61.9346L1363.89 36.794L1322.59 22.2751L1312.04 43.5567L1298.59 26.134L1222.76 0L1150.74 12.5703L1140.19 18.3779V24.1854L1155.55 31.9416L1153.64 50.3195L1125.79 38.7044L1064.35 62.8898L1053.81 40.6529H1011.55L992.333 60.9794L924.173 45.5053L861.782 58.0756L854.102 77.4087L863.692 80.3125L862.737 94.8314L802.256 101.594L806.115 120.927L750.41 111.261L763.859 86.12L707.199 83.2163L712.013 109.35L693.789 118.062L678.43 103.543L616.039 114.203L592.045 136.44L591.09 149.965L575.731 150.92L573.821 135.446L622.801 92.8828V63.845L591.128 55.1336L549.827 68.6591L532.558 51.2365H524.878L515.289 70.5695L522.968 79.2809L468.219 109.274L421.186 145.074L392.379 184.734V201.163L423.097 213.734L407.738 225.349L375.11 213.734L361.661 225.349L341.488 202.118L337.629 210.83L359.713 280.482L365.482 282.431L380.841 274.675L388.52 280.482V293.053L374.116 287.245L365.482 294.008L371.251 306.578L366.437 339.475L336.674 342.379L334.764 331.719L352.033 321.059L355.892 292.021L336.674 266.88L329.95 223.362L299.232 218.51L296.366 233.984L302.136 241.74L289.642 252.4L294.456 281.438L312.681 289.194L316.539 310.475L298.277 298.86L251.245 290.149L245.476 305.623L208.033 319.149L202.264 309.482L153.284 336.571L152.329 354.949L133.111 357.853L138.88 344.327V330.802L119.662 324.039L107.169 328.891L117.714 349.218L125.393 362.743V373.403L110.99 370.5L108.124 367.596L93.7202 383.07L101.4 396.595L68.7714 395.64L79.3164 409.204L76.4509 415.012H59.1815L46.6882 406.3L43.8228 382.115L23.6497 374.359V364.692L65.9059 373.403L88.9444 375.352L98.5342 360.833L89.8996 345.359L28.4638 321.174L7.25929 326.446L0 332.674L2.25428 347.002L11.2709 348.568L9.16961 371.111L36.9837 436.446L16.8874 468.311L15.5118 475.494L25.713 482.677L16.5052 488.752L10.3922 488.867L11.5384 516.95L19.9821 528.909L20.0966 540.524L30.909 541.517L47.4524 547.821L64.9507 571.892L65.142 578.235L59.449 587.978L72.5157 587.252L85.2383 590.92L102.431 615.258L144.764 619.117L142.93 648.078L128.335 660.572L131.353 665.463L116.95 680.937L113.129 695.456L121.764 708.026L149.616 717.693L161.154 710.93L235.084 738.974L237.949 731.218L222.59 716.699V698.321L213 695.417L214.911 679.943L230.27 661.565L202.723 640.933L204.633 612.239L234.09 592.868L268.667 594.817L274.436 605.477L309.968 607.425L335.91 592.906L322.461 578.387L325.327 551.298L392.532 518.401L444.225 541.708L461.494 526.234L512.385 574.605L550.782 570.746L564.231 584.271L600.718 588.13L624.712 555.234L655.43 568.797L671.744 571.701L688.058 557.182L673.654 547.516L686.147 528.183L721.679 539.798L729.359 555.272L744.718 556.227L754.307 549.464L780.25 548.509L783.115 555.272L812.878 557.22L833.051 535.939L874.352 540.791L886.845 535.939L890.666 512.708L878.172 484.664L890.666 474.004H930.018L967.461 518.516L1015.45 545.605H1029.85L1031.76 533.99L1049.03 523.33L1050.94 586.22L1035.58 587.175V602.649L1044.22 613.309L1042.61 627.14L1048.99 629.777L1052.85 620.11L1058.62 622.059L1062.44 625.918L1079.71 622.059L1096.98 571.739L1098.89 508.849L1076.81 458.53L1048.95 424.678L1035.51 426.627V437.287L1002.88 424.716L1015.37 397.627L1025.92 326.026L1070.08 312.5L1091.21 298.975H1114.25L1108.48 306.731L1114.25 316.398L1134.42 295.116L1145.96 296.071L1144.05 283.501L1125.79 279.642L1138.28 234.175L1154.75 218.586Z"/>
</mask>
<path d="M1154.75 218.586L1161.47 241.816L1174.92 245.675L1188.37 224.394L1180.69 209.875L1183.56 197.304H1203.73L1198.91 206.971L1200.82 241.816L1172.02 313.417L1174.88 328.891L1173.93 355.026L1227.68 433.389L1238.23 436.293L1239.18 372.448L1249.73 362.782L1238.19 337.641L1247.78 326.981L1226.65 298.937L1215.11 299.892L1211.29 253.47L1241.06 245.713L1242.97 232.15L1258.33 228.291L1266.96 236.047L1277.5 193.484L1295.73 162.535L1310.13 154.779L1322.63 155.734V141.215L1302.45 137.357L1274.6 114.126L1288.05 98.6522L1276.51 72.5181L1286.1 62.8516L1297.64 78.3257L1326.45 88.9856L1358.12 91.8894L1361.98 78.3639L1345.66 61.9346L1363.89 36.794L1322.59 22.2751L1312.04 43.5567L1298.59 26.134L1222.76 0L1150.74 12.5703L1140.19 18.3779V24.1854L1155.55 31.9416L1153.64 50.3195L1125.79 38.7044L1064.35 62.8898L1053.81 40.6529H1011.55L992.333 60.9794L924.173 45.5053L861.782 58.0756L854.102 77.4087L863.692 80.3125L862.737 94.8314L802.256 101.594L806.115 120.927L750.41 111.261L763.859 86.12L707.199 83.2163L712.013 109.35L693.789 118.062L678.43 103.543L616.039 114.203L592.045 136.44L591.09 149.965L575.731 150.92L573.821 135.446L622.801 92.8828V63.845L591.128 55.1336L549.827 68.6591L532.558 51.2365H524.878L515.289 70.5695L522.968 79.2809L468.219 109.274L421.186 145.074L392.379 184.734V201.163L423.097 213.734L407.738 225.349L375.11 213.734L361.661 225.349L341.488 202.118L337.629 210.83L359.713 280.482L365.482 282.431L380.841 274.675L388.52 280.482V293.053L374.116 287.245L365.482 294.008L371.251 306.578L366.437 339.475L336.674 342.379L334.764 331.719L352.033 321.059L355.892 292.021L336.674 266.88L329.95 223.362L299.232 218.51L296.366 233.984L302.136 241.74L289.642 252.4L294.456 281.438L312.681 289.194L316.539 310.475L298.277 298.86L251.245 290.149L245.476 305.623L208.033 319.149L202.264 309.482L153.284 336.571L152.329 354.949L133.111 357.853L138.88 344.327V330.802L119.662 324.039L107.169 328.891L117.714 349.218L125.393 362.743V373.403L110.99 370.5L108.124 367.596L93.7202 383.07L101.4 396.595L68.7714 395.64L79.3164 409.204L76.4509 415.012H59.1815L46.6882 406.3L43.8228 382.115L23.6497 374.359V364.692L65.9059 373.403L88.9444 375.352L98.5342 360.833L89.8996 345.359L28.4638 321.174L7.25929 326.446L0 332.674L2.25428 347.002L11.2709 348.568L9.16961 371.111L36.9837 436.446L16.8874 468.311L15.5118 475.494L25.713 482.677L16.5052 488.752L10.3922 488.867L11.5384 516.95L19.9821 528.909L20.0966 540.524L30.909 541.517L47.4524 547.821L64.9507 571.892L65.142 578.235L59.449 587.978L72.5157 587.252L85.2383 590.92L102.431 615.258L144.764 619.117L142.93 648.078L128.335 660.572L131.353 665.463L116.95 680.937L113.129 695.456L121.764 708.026L149.616 717.693L161.154 710.93L235.084 738.974L237.949 731.218L222.59 716.699V698.321L213 695.417L214.911 679.943L230.27 661.565L202.723 640.933L204.633 612.239L234.09 592.868L268.667 594.817L274.436 605.477L309.968 607.425L335.91 592.906L322.461 578.387L325.327 551.298L392.532 518.401L444.225 541.708L461.494 526.234L512.385 574.605L550.782 570.746L564.231 584.271L600.718 588.13L624.712 555.234L655.43 568.797L671.744 571.701L688.058 557.182L673.654 547.516L686.147 528.183L721.679 539.798L729.359 555.272L744.718 556.227L754.307 549.464L780.25 548.509L783.115 555.272L812.878 557.22L833.051 535.939L874.352 540.791L886.845 535.939L890.666 512.708L878.172 484.664L890.666 474.004H930.018L967.461 518.516L1015.45 545.605H1029.85L1031.76 533.99L1049.03 523.33L1050.94 586.22L1035.58 587.175V602.649L1044.22 613.309L1042.61 627.14L1048.99 629.777L1052.85 620.11L1058.62 622.059L1062.44 625.918L1079.71 622.059L1096.98 571.739L1098.89 508.849L1076.81 458.53L1048.95 424.678L1035.51 426.627V437.287L1002.88 424.716L1015.37 397.627L1025.92 326.026L1070.08 312.5L1091.21 298.975H1114.25L1108.48 306.731L1114.25 316.398L1134.42 295.116L1145.96 296.071L1144.05 283.501L1125.79 279.642L1138.28 234.175L1154.75 218.586Z" fill="#F2F2F2" stroke="url(#paint0_linear_2013_154)" stroke-width="9.63879" mask="url(#path-2-inside-1_2013_154)"/>
<path d="M591.527 589.467L578.313 622.712L560.096 621.757L540.886 663.829L557.193 684.617L523.585 731.046L506.323 728.142L494.789 742.663L497.653 751.375L511.097 752.331L517.818 767.807L531.261 770.711L572.546 823.942V851.035L592.711 863.607L614.785 859.747L642.627 876.179L676.235 885.847L692.542 883.898L710.798 881.949L749.179 856.805L761.668 858.754L766.442 870.103L777.021 873.275L791.419 894.56L781.833 915.844L787.6 930.365L803.907 936.173L806.772 953.599L825.982 955.547L828.846 946.835L856.687 932.314L873.949 933.269L894.114 955.509L907.558 949.701L916.189 950.656L920.046 961.318L926.768 962.273L936.354 948.746L974.736 934.225L1009.3 892.611L1020.83 852.946L1019.88 826.808L1005.48 823.904L1014.11 814.236L1012.2 798.759L975.729 761.999V743.618L986.269 730.091L996.81 725.238L997.765 714.576H970.878L966.066 729.097L953.578 726.193L938.225 709.761L947.811 684.617L961.254 670.096L973.743 671.051L971.833 693.291L978.555 699.1L994.862 682.668L1000.63 681.713L998.72 669.141L1014.07 650.76L1025.61 651.716L1032.33 630.431L1040.2 626.266L1041 613.006L1033.36 604.981L1032.71 584.04L1047.41 583.085L1046.46 529.09L1036.15 535.281L1032.29 549.114L1015.07 549.076L965.15 520.989L929.097 477.503L892.51 477.12L883.192 485.222L895.031 512.353L890.906 537.803L876.165 543.917L867.877 543.267L867.266 568.45L875.897 570.398L891.25 563.635L911.415 573.303V582.97L897.017 583.926L885.483 609.07L874.942 610.025L837.515 659.358L798.179 676.783L771.292 678.732L753.075 666.16L727.143 679.726L699.302 671.013L692.58 652.633L645.567 649.729L620.629 609.108H610.088L601.609 590.269L591.527 589.467Z" fill="#F2F2F2"/>
<path d="M594.167 303.455C597.766 303.455 600.388 304.162 602.033 305.576C603.678 306.989 604.5 308.981 604.5 311.552C604.5 312.683 604.307 313.775 603.922 314.829C603.562 315.857 602.958 316.782 602.11 317.605C601.262 318.427 600.131 319.083 598.717 319.571C597.303 320.034 595.568 320.265 593.512 320.265H590.35V330.983H586.88V303.455H594.167ZM593.859 306.424H590.35V317.296H593.126C594.874 317.296 596.326 317.116 597.483 316.757C598.64 316.371 599.501 315.767 600.066 314.944C600.632 314.122 600.915 313.042 600.915 311.706C600.915 309.932 600.349 308.609 599.218 307.735C598.087 306.861 596.301 306.424 593.859 306.424ZM627.728 320.612C627.728 322.334 627.497 323.864 627.034 325.2C626.598 326.511 625.955 327.629 625.107 328.554C624.284 329.48 623.269 330.187 622.061 330.675C620.879 331.138 619.555 331.369 618.09 331.369C616.727 331.369 615.468 331.138 614.311 330.675C613.155 330.187 612.152 329.48 611.304 328.554C610.456 327.629 609.787 326.511 609.299 325.2C608.836 323.864 608.605 322.334 608.605 320.612C608.605 318.324 608.991 316.397 609.762 314.829C610.533 313.235 611.638 312.027 613.078 311.205C614.517 310.356 616.226 309.932 618.205 309.932C620.082 309.932 621.727 310.356 623.14 311.205C624.58 312.027 625.698 313.235 626.495 314.829C627.317 316.397 627.728 318.324 627.728 320.612ZM612.114 320.612C612.114 322.231 612.319 323.645 612.731 324.853C613.167 326.035 613.836 326.948 614.735 327.591C615.635 328.233 616.779 328.554 618.167 328.554C619.555 328.554 620.699 328.233 621.598 327.591C622.498 326.948 623.153 326.035 623.565 324.853C624.001 323.645 624.22 322.231 624.22 320.612C624.22 318.967 624.001 317.566 623.565 316.41C623.128 315.253 622.459 314.366 621.56 313.749C620.686 313.107 619.542 312.785 618.128 312.785C616.021 312.785 614.491 313.479 613.54 314.867C612.589 316.255 612.114 318.17 612.114 320.612ZM641.395 331.369C639.57 331.369 637.938 330.996 636.499 330.251C635.085 329.505 633.967 328.349 633.144 326.781C632.347 325.213 631.949 323.208 631.949 320.766C631.949 318.222 632.373 316.153 633.221 314.559C634.07 312.965 635.213 311.796 636.653 311.05C638.118 310.305 639.776 309.932 641.626 309.932C642.68 309.932 643.696 310.048 644.672 310.279C645.649 310.485 646.446 310.742 647.063 311.05L646.022 313.865C645.405 313.634 644.685 313.415 643.863 313.209C643.04 313.004 642.269 312.901 641.549 312.901C640.161 312.901 639.018 313.197 638.118 313.788C637.218 314.379 636.55 315.253 636.113 316.41C635.676 317.566 635.458 319.006 635.458 320.728C635.458 322.373 635.676 323.774 636.113 324.93C636.55 326.087 637.205 326.961 638.079 327.552C638.953 328.143 640.046 328.439 641.357 328.439C642.487 328.439 643.477 328.323 644.325 328.092C645.199 327.86 645.996 327.578 646.716 327.244V330.251C646.022 330.611 645.251 330.881 644.402 331.061C643.58 331.266 642.577 331.369 641.395 331.369ZM659.92 331.369C658.095 331.369 656.463 330.996 655.023 330.251C653.609 329.505 652.491 328.349 651.669 326.781C650.872 325.213 650.474 323.208 650.474 320.766C650.474 318.222 650.898 316.153 651.746 314.559C652.594 312.965 653.738 311.796 655.177 311.05C656.642 310.305 658.3 309.932 660.151 309.932C661.205 309.932 662.22 310.048 663.197 310.279C664.174 310.485 664.97 310.742 665.587 311.05L664.546 313.865C663.929 313.634 663.21 313.415 662.387 313.209C661.565 313.004 660.794 312.901 660.074 312.901C658.686 312.901 657.542 313.197 656.642 313.788C655.743 314.379 655.075 315.253 654.638 316.41C654.201 317.566 653.982 319.006 653.982 320.728C653.982 322.373 654.201 323.774 654.638 324.93C655.075 326.087 655.73 326.961 656.604 327.552C657.478 328.143 658.57 328.439 659.881 328.439C661.012 328.439 662.002 328.323 662.85 328.092C663.724 327.86 664.521 327.578 665.24 327.244V330.251C664.546 330.611 663.775 330.881 662.927 331.061C662.104 331.266 661.102 331.369 659.92 331.369ZM673.355 322.925C673.355 323.157 673.342 323.491 673.316 323.928C673.316 324.339 673.304 324.789 673.278 325.277C673.252 325.74 673.226 326.19 673.201 326.627C673.175 327.038 673.149 327.372 673.124 327.629L684.189 310.318H688.353V330.983H685.191V318.8C685.191 318.389 685.191 317.849 685.191 317.181C685.217 316.512 685.243 315.857 685.268 315.214C685.294 314.546 685.32 314.045 685.346 313.711L674.357 330.983H670.155V310.318H673.355V322.925ZM696.202 330.983H692.269L698.168 322.308C697.371 322.103 696.6 321.782 695.855 321.345C695.109 320.882 694.505 320.252 694.043 319.455C693.58 318.633 693.349 317.618 693.349 316.41C693.349 314.43 694.017 312.927 695.354 311.899C696.69 310.845 698.464 310.318 700.674 310.318H709.928V330.983H706.535V322.771H701.522L696.202 330.983ZM696.626 316.448C696.626 317.63 697.063 318.517 697.937 319.108C698.836 319.674 700.083 319.957 701.677 319.957H706.535V313.132H701.021C699.453 313.132 698.322 313.441 697.628 314.058C696.96 314.675 696.626 315.471 696.626 316.448Z" fill="#616161"/>
<path d="M1100.69 507.499C1122.69 563 1072.19 678 895.188 709.806" stroke="#3F9755" stroke-width="1.60647" stroke-dasharray="23 23"/>
<circle cx="894.798" cy="710.058" r="7.2291" fill="white" stroke="#3F9755" stroke-width="1.60647"/>
<circle cx="894.799" cy="710.058" r="3.21293" fill="#3F9755"/>
<path d="M1098.69 504.5C1162.69 631 1098.69 751.5 956.688 800.5" stroke="#3F9755" stroke-width="1.60647" stroke-dasharray="23 23"/>
<path d="M1097.69 508C717.188 756.5 925.188 763.5 591.689 736.307" stroke="#3F9755" stroke-width="1.60647" stroke-dasharray="23 23"/>
<path class = "pathSvg" d="M1099.19 508C1111.69 553 888.187 658.306 641.189 658.306" stroke="#3F9755" stroke-width="1.60647" stroke-dasharray="23 23"/>
<path d="M1100.69 507.5C1065.19 600.5 1009.19 603 777.688 691.5" stroke="#3F9755" stroke-width="1.60647" stroke-dasharray="23 23"/>
<path d="M1098.69 508C1151.19 646.5 1082.69 760.5 690.688 811.5" stroke="#3F9755" stroke-width="1.60647" stroke-dasharray="23 23"/>
<circle cx="589.798" cy="738.839" r="7.2291" fill="white" stroke="#3F9755" stroke-width="1.60647"/>
<circle cx="589.799" cy="738.838" r="3.21293" fill="#3F9755"/>
<circle cx="644.798" cy="661.839" r="7.2291" fill="white" stroke="#3F9755" stroke-width="1.60647"/>
<circle cx="644.799" cy="661.838" r="3.21293" fill="#3F9755"/>
<circle cx="954.72" cy="802.032" r="7.2291" fill="white" stroke="#3F9755" stroke-width="1.60647"/>
<circle cx="954.721" cy="802.032" r="3.21293" fill="#3F9755"/>
<circle cx="690.72" cy="812.032" r="7.2291" fill="white" stroke="#3F9755" stroke-width="1.60647"/>
<circle cx="690.721" cy="812.032" r="3.21293" fill="#3F9755"/>
<circle cx="775.72" cy="692.032" r="7.2291" fill="white" stroke="#3F9755" stroke-width="1.60647"/>
<circle cx="775.721" cy="692.032" r="3.21293" fill="#3F9755"/>
<circle cx="235.72" cy="498.032" r="7.2291" fill="white" stroke="#9D9D9D" stroke-width="1.60647"/>
<circle cx="235.721" cy="498.032" r="3.21293" fill="#9D9D9D"/>
<circle cx="303.72" cy="397.032" r="7.2291" fill="white" stroke="#9D9D9D" stroke-width="1.60647"/>
<circle cx="303.721" cy="397.032" r="3.21293" fill="#9D9D9D"/>
<circle cx="398.72" cy="457.032" r="7.2291" fill="white" stroke="#9D9D9D" stroke-width="1.60647"/>
<circle cx="398.721" cy="457.032" r="3.21293" fill="#9D9D9D"/>
<circle cx="573.72" cy="417.032" r="7.2291" fill="white" stroke="#9D9D9D" stroke-width="1.60647"/>
<circle cx="573.721" cy="417.032" r="3.21293" fill="#9D9D9D"/>
<circle cx="713.72" cy="524.032" r="7.2291" fill="white" stroke="#9D9D9D" stroke-width="1.60647"/>
<circle cx="713.721" cy="524.032" r="3.21293" fill="#9D9D9D"/>
<circle cx="1099.72" cy="508.032" r="7.2291" fill="white" stroke="#9D9D9D" stroke-width="1.60647"/>
<circle cx="1099.72" cy="508.032" r="3.21293" fill="#9D9D9D"/>
<path d="M238.188 498C279.021 474.667 349.588 421.8 305.188 397C359.188 404.167 453.888 426.2 400.688 457C472.188 489 612.188 514.5 574.188 416C652.188 441 762.188 485.5 714.688 524C845.688 472.5 1099.09 422.9 1098.69 508.5" stroke="#9D9D9D" stroke-width="2" stroke-dasharray="4 4"/>
<path d="M242.688 504.5C304.688 510.333 422.888 509.1 399.688 457.5C473.188 522.5 638.688 626.8 712.688 524C731.688 445.833 676.487 311 303.688 397" stroke="#9D9D9D" stroke-width="2" stroke-dasharray="4 4"/>
<path d="M1102.19 510C1063.69 411.167 904.487 253.8 575.688 415C537.354 362 429.287 284.2 303.688 397" stroke="#9D9D9D" stroke-width="2" stroke-dasharray="4 4"/>
<path d="M737.093 779.187H732.929L720.475 765.23V779.187H717.005V751.659H720.475V764.999L732.62 751.659H736.553L724.601 765.037L737.093 779.187ZM743.576 771.129C743.576 771.36 743.563 771.694 743.538 772.131C743.538 772.543 743.525 772.992 743.499 773.481C743.474 773.944 743.448 774.393 743.422 774.83C743.396 775.242 743.371 775.576 743.345 775.833L754.41 758.521H758.574V779.187H755.413V767.004C755.413 766.592 755.413 766.053 755.413 765.384C755.438 764.716 755.464 764.061 755.49 763.418C755.516 762.75 755.541 762.248 755.567 761.914L744.579 779.187H740.376V758.521H743.576V771.129ZM779.416 761.375H772.669V779.187H769.315V761.375H762.645V758.521H779.416V761.375ZM791.314 758.174C793.833 758.174 795.696 758.727 796.904 759.832C798.113 760.938 798.717 762.698 798.717 765.114V779.187H796.249L795.594 776.257H795.439C794.848 777.002 794.231 777.632 793.589 778.146C792.972 778.634 792.252 778.994 791.43 779.226C790.633 779.457 789.656 779.573 788.499 779.573C787.266 779.573 786.148 779.354 785.145 778.917C784.168 778.48 783.397 777.812 782.832 776.912C782.266 775.987 781.984 774.83 781.984 773.442C781.984 771.386 782.793 769.805 784.413 768.7C786.032 767.569 788.525 766.952 791.892 766.849L795.401 766.734V765.5C795.401 763.778 795.028 762.583 794.283 761.914C793.537 761.246 792.483 760.912 791.121 760.912C790.042 760.912 789.013 761.079 788.037 761.413C787.06 761.722 786.148 762.081 785.299 762.493L784.258 759.948C785.158 759.46 786.225 759.048 787.458 758.714C788.692 758.354 789.977 758.174 791.314 758.174ZM792.316 769.201C789.746 769.304 787.96 769.715 786.957 770.435C785.98 771.155 785.492 772.17 785.492 773.481C785.492 774.638 785.839 775.486 786.533 776.025C787.253 776.565 788.165 776.835 789.271 776.835C791.018 776.835 792.471 776.36 793.627 775.409C794.784 774.432 795.362 772.941 795.362 770.936V769.086L792.316 769.201ZM821.832 749.962C821.729 751.247 821.408 752.327 820.868 753.201C820.354 754.075 819.583 754.73 818.555 755.167C817.527 755.604 816.19 755.823 814.545 755.823C812.875 755.823 811.525 755.604 810.497 755.167C809.495 754.73 808.762 754.088 808.299 753.239C807.837 752.365 807.554 751.273 807.451 749.962H810.613C810.741 751.35 811.101 752.288 811.692 752.777C812.309 753.239 813.286 753.471 814.622 753.471C815.805 753.471 816.73 753.227 817.398 752.738C818.092 752.224 818.504 751.299 818.632 749.962H821.832ZM808.299 771.129C808.299 771.36 808.286 771.694 808.261 772.131C808.261 772.543 808.248 772.992 808.222 773.481C808.197 773.944 808.171 774.393 808.145 774.83C808.119 775.242 808.094 775.576 808.068 775.833L819.133 758.521H823.297V779.187H820.136V767.004C820.136 766.592 820.136 766.053 820.136 765.384C820.161 764.716 820.187 764.061 820.213 763.418C820.239 762.75 820.264 762.248 820.29 761.914L809.302 779.187H805.099V758.521H808.299V771.129Z" fill="#616161"/>
<path d="M241.688 498.5C414.854 561.333 1150.69 597.5 1099.19 508.5" stroke="#9D9D9D" stroke-width="2" stroke-dasharray="4 4"/>
<defs>
<linearGradient id="paint0_linear_2013_154" x1="-27.3099" y1="566.279" x2="202.415" y2="314.867" gradientUnits="userSpaceOnUse">
<stop stop-color="#3F9755"/>
<stop offset="1" stop-color="white"/>
</linearGradient>
</defs>
</svg>
