<svg width="114" height="114" viewBox="0 0 114 114" fill="none" xmlns="http://www.w3.org/2000/svg">
<g clip-path="url(#clip0_266_9671)">
<path opacity="0.964" fill-rule="evenodd" clip-rule="evenodd" d="M20.2729 1C20.8033 1 21.3337 1 21.8641 1C22.4831 1.35648 22.866 1.88968 23.0133 2.59961C23.0428 9.65049 23.1312 16.7006 23.2785 23.75C24.4807 19.7983 25.6299 15.8288 26.7261 11.8418C26.8822 11.3793 27.1474 10.9942 27.5217 10.6865C29.6887 9.85968 31.9282 9.32648 34.24 9.08691C43.08 8.25748 51.92 8.25748 60.7599 9.08691C63.0717 9.32648 65.3113 9.85968 67.4783 10.6865C67.8526 10.9942 68.1178 11.3793 68.2739 11.8418C69.37 15.8288 70.5192 19.7983 71.7215 23.75C71.8687 16.7006 71.9571 9.65049 71.9867 2.59961C72.1339 1.88968 72.5169 1.35648 73.1359 1C73.6663 1 74.1967 1 74.7271 1C75.1349 1.26258 75.459 1.61805 75.6994 2.06641C75.7878 9.29403 75.8174 16.5219 75.7878 23.75C76.6738 23.7205 77.5578 23.7502 78.4398 23.8389C79.0949 24.1408 79.478 24.6445 79.589 25.3496C79.6479 33.1699 79.707 40.9902 79.7658 48.8105C81.3475 49.2453 82.9091 49.7488 84.451 50.3213C85.7621 51.2091 86.6166 52.4235 87.0146 53.9648C87.0441 57.9356 87.1325 61.9049 87.2798 65.873C88.2732 65.2394 89.2751 65.2099 90.2854 65.7842C90.5578 66.0648 90.7642 66.3908 90.9042 66.7617C91.0758 71.0977 91.0168 75.4227 90.7274 79.7363C90.3847 80.1995 89.9427 80.5253 89.4014 80.7139C87.411 81.361 85.4367 82.0424 83.4786 82.7578C83.4197 84.3574 83.3607 85.957 83.3018 87.5566C82.6673 89.7641 81.2822 91.2452 79.147 92C76.9075 92 74.6682 92 72.4287 92C69.1061 90.6556 67.6917 88.1673 68.1855 84.5352C54.3951 84.5352 40.6048 84.5352 26.8145 84.5352C27.3083 88.1673 25.8939 90.6556 22.5713 92C20.3318 92 18.0924 92 15.8529 92C13.7177 91.2452 12.3328 89.7641 11.6982 87.5566C11.6392 85.957 11.5803 84.3574 11.5214 82.7578C9.56323 82.0424 7.58897 81.361 5.59858 80.7139C5.05729 80.5253 4.61529 80.1995 4.27259 79.7363C3.98314 75.4227 3.9242 71.0977 4.09579 66.7617C4.54047 65.6937 5.33607 65.2494 6.48258 65.4287C6.90182 65.5593 7.31435 65.7074 7.72017 65.873C7.86746 61.9049 7.95586 57.9356 7.98537 53.9648C8.38336 52.4235 9.23789 51.2091 10.549 50.3213C12.0908 49.7488 13.6525 49.2453 15.2341 48.8105C15.2931 40.9902 15.352 33.1699 15.4109 25.3496C15.522 24.6445 15.9051 24.1408 16.5601 23.8389C17.4422 23.7502 18.3262 23.7205 19.2121 23.75C19.1826 16.5219 19.2121 9.29403 19.3005 2.06641C19.5409 1.61805 19.865 1.26258 20.2729 1ZM39.1904 12.5527C41.312 12.5527 43.4336 12.5527 45.5552 12.5527C45.5552 16.2852 45.5552 20.0176 45.5552 23.75C43.4207 23.7086 41.2991 23.8566 39.1904 24.1943C35.0229 24.8605 30.8977 25.7195 26.8145 26.7715C27.835 22.478 28.9842 18.2123 30.2621 13.9746C31.4371 13.5849 32.6451 13.3183 33.8864 13.1748C35.6827 12.9857 37.4507 12.7783 39.1904 12.5527ZM49.4448 12.5527C54.5693 12.3829 59.6376 12.8272 64.6495 13.8857C65.9907 18.1377 67.1694 22.433 68.1855 26.7715C64.1023 25.7195 59.9771 24.8605 55.8095 24.1943C53.7009 23.8566 51.5793 23.7086 49.4448 23.75C49.4448 20.0176 49.4448 16.2852 49.4448 12.5527ZM19.2121 27.6602C20.4497 27.6602 21.6873 27.6602 22.9249 27.6602C22.9838 34.0597 22.9249 40.4581 22.7481 46.8555C21.5809 47.2081 20.4022 47.5042 19.2121 47.7441C19.2121 41.0494 19.2121 34.3549 19.2121 27.6602ZM43.2568 27.6602C49.2218 27.3297 55.1151 27.8333 60.9367 29.1709C63.3493 29.7626 65.7656 30.3253 68.1855 30.8594C68.215 33.3484 68.1855 35.8366 68.0971 38.3242C67.4684 37.5736 66.7317 36.9516 65.8871 36.458C61.8211 34.6017 57.6368 33.0613 53.3344 31.8369C47.5719 30.5985 41.9734 31.1317 36.5384 33.4365C34.0231 34.3453 31.5479 35.3525 29.1129 36.458C28.2683 36.9516 27.5316 37.5736 26.9029 38.3242C26.8145 35.8366 26.785 33.3484 26.8145 30.8594C32.2475 29.4233 37.7283 28.3569 43.2568 27.6602ZM72.0751 27.6602C73.3127 27.6602 74.5503 27.6602 75.7878 27.6602C75.7878 34.3549 75.7878 41.0494 75.7878 47.7441C74.5978 47.5042 73.4191 47.2081 72.2519 46.8555C72.0751 40.4581 72.0162 34.0597 72.0751 27.6602ZM45.732 35.125C48.2496 35.008 50.7248 35.2747 53.1576 35.9248C56.9662 37.0987 60.6789 38.5206 64.2959 40.1904C64.7566 40.5349 65.0807 40.9792 65.2683 41.5234C66.2702 44.0709 67.272 46.6185 68.2739 49.166C68.4723 49.5435 68.7374 49.8693 69.0695 50.1436C73.568 51.3333 78.047 52.5774 82.5062 53.876C82.7801 54.0917 82.9862 54.3583 83.125 54.6758C83.2134 58.8817 83.2429 63.0881 83.2134 67.2949C81.2555 67.8621 79.3107 68.4841 77.379 69.1611C72.193 69.2203 67.0068 69.2797 61.8207 69.3389C61.4452 69.5383 61.1211 69.8049 60.8483 70.1387C60.7894 62.6146 60.7304 55.0904 60.6715 47.5664C60.3047 46.8414 59.8038 46.2194 59.1687 45.7002C52.6996 42.1651 45.9813 41.6319 39.0136 44.1006C37.9035 44.5401 36.8427 45.0733 35.8312 45.7002C35.1962 46.2194 34.6953 46.8414 34.3284 47.5664C34.2696 55.0312 34.2105 62.4961 34.1516 69.9609C33.8276 69.7535 33.5033 69.5463 33.1793 69.3389C27.9932 69.2797 22.807 69.2203 17.6209 69.1611C15.6892 68.4841 13.7444 67.8621 11.7866 67.2949C11.7571 63.0881 11.7866 58.8817 11.875 54.6758C12.0598 54.3932 12.2661 54.1266 12.4937 53.876C16.955 52.5769 21.434 51.3328 25.9305 50.1436C26.2625 49.8693 26.5277 49.5435 26.7261 49.166C27.728 46.6185 28.7297 44.0709 29.7317 41.5234C29.9193 40.9792 30.2433 40.5349 30.7041 40.1904C35.5312 37.8719 40.5405 36.1834 45.732 35.125ZM45.732 46.5C49.6744 46.2318 53.3577 47.0613 56.7819 48.9883C56.8698 49.3988 56.8992 49.8135 56.8703 50.2324C50.6235 50.2324 44.3765 50.2324 38.1296 50.2324C37.9304 49.0976 38.4019 48.4162 39.544 48.1885C41.5776 47.4262 43.6403 46.8633 45.732 46.5ZM38.1296 54.1426C44.3765 54.1426 50.6235 54.1426 56.8703 54.1426C56.8703 55.3867 56.8703 56.6309 56.8703 57.875C50.6235 57.875 44.3765 57.875 38.1296 57.875C38.1296 56.6309 38.1296 55.3867 38.1296 54.1426ZM19.2121 57.875C21.6873 57.875 24.1625 57.875 26.6377 57.875C26.6377 59.1191 26.6377 60.3633 26.6377 61.6074C24.1625 61.6074 21.6873 61.6074 19.2121 61.6074C19.2121 60.3633 19.2121 59.1191 19.2121 57.875ZM68.3623 57.875C70.8375 57.875 73.3127 57.875 75.7878 57.875C75.7878 59.1191 75.7878 60.3633 75.7878 61.6074C73.3127 61.6074 70.8375 61.6074 68.3623 61.6074C68.3623 60.3633 68.3623 59.1191 68.3623 57.875ZM38.1296 61.7852C44.3765 61.7852 50.6235 61.7852 56.8703 61.7852C56.8703 62.9701 56.8703 64.1549 56.8703 65.3398C50.6235 65.3398 44.3765 65.3398 38.1296 65.3398C38.1296 64.1549 38.1296 62.9701 38.1296 61.7852ZM38.1296 69.25C44.3765 69.25 50.6235 69.25 56.8703 69.25C56.8703 70.4941 56.8703 71.7383 56.8703 72.9824C50.6235 72.9824 44.3765 72.9824 38.1296 72.9824C38.1296 71.7383 38.1296 70.4941 38.1296 69.25ZM7.89697 70.1387C10.8939 71.1331 13.8995 72.1106 16.9137 73.0713C21.8052 73.1305 26.6966 73.1898 31.5881 73.249C32.7788 74.5651 34.0753 75.7501 35.4776 76.8037C43.4925 76.9223 51.5075 76.9223 59.5223 76.8037C60.9247 75.7501 62.2212 74.5651 63.4119 73.249C68.3034 73.1898 73.1947 73.1305 78.0862 73.0713C81.0505 72.1471 83.9972 71.1695 86.9262 70.1387C87.1323 72.5063 87.1619 74.876 87.0146 77.248C83.8188 78.3783 80.607 79.4742 77.379 80.5361C57.4596 80.6547 37.5404 80.6547 17.6209 80.5361C14.393 79.4742 11.1812 78.3783 7.98537 77.248C7.89699 74.879 7.86752 72.5091 7.89697 70.1387ZM15.4993 84.002C15.9487 84.2017 16.4202 84.35 16.9137 84.4463C18.9166 84.5352 20.9203 84.5648 22.9249 84.5352C22.9541 85.1896 22.9247 85.8411 22.8365 86.4902C22.7294 87.032 22.4642 87.4763 22.0409 87.8232C20.2906 88.1103 18.5226 88.1696 16.7369 88.001C16.0889 87.7045 15.7058 87.201 15.5877 86.4902C15.4995 85.6629 15.47 84.8336 15.4993 84.002ZM79.3238 84.002C79.6053 85.1348 79.5169 86.2606 79.0586 87.3789C78.844 87.6542 78.5788 87.8615 78.263 88.001C76.4774 88.1696 74.7094 88.1103 72.9591 87.8232C72.5358 87.4763 72.2706 87.032 72.1635 86.4902C72.0752 85.8411 72.0459 85.1896 72.0751 84.5352C74.0796 84.5648 76.0835 84.5352 78.0862 84.4463C78.5466 84.377 78.9593 84.2287 79.3238 84.002Z" fill="white"/>
</g>
<defs>
<clipPath id="clip0_266_9671">
<rect width="105" height="105" fill="white" transform="translate(4 4)"/>
</clipPath>
</defs>
</svg>
