<svg width="32" height="32" viewBox="0 0 32 32" fill="none" xmlns="http://www.w3.org/2000/svg">
<path d="M15.4328 1.70003C15.1516 1.79378 15.1203 1.98753 15.1391 3.42503C15.1641 4.97503 15.1453 4.93128 15.7953 5.01253C16.5703 5.10628 17.2328 5.56878 17.5578 6.25003C17.6953 6.54378 17.7203 6.67503 17.7203 7.18753C17.7203 7.71253 17.7016 7.82503 17.5453 8.13753C17.3578 8.51878 16.8391 9.03753 16.5891 9.10003C16.4891 9.12503 16.3453 9.08128 16.1641 8.97503C15.8016 8.76253 15.7078 8.76878 15.2641 9.03128C14.9078 9.24378 14.8891 9.25003 14.6828 9.16253C14.3641 9.02503 14.0453 8.75628 13.7578 8.38753C13.5453 8.12503 13.4641 8.06253 13.3141 8.06253C13.0828 8.06253 12.8766 8.25628 12.8766 8.47503C12.8766 8.68753 13.1703 9.10003 13.5703 9.46253C13.7516 9.62503 13.8703 9.77503 13.8391 9.80628C13.8078 9.83128 10.8953 11.425 7.35781 13.3438C2.43906 16.0125 0.932813 16.8563 0.907813 16.9625C0.889063 17.0313 0.882812 20.0688 0.889063 23.7C0.907813 29.95 0.914062 30.3125 1.02031 30.4188C1.12656 30.525 1.81406 30.5313 15.8328 30.55C25.8203 30.5625 30.6016 30.55 30.7578 30.5063C30.9016 30.4625 31.0078 30.3813 31.0516 30.2813C31.1641 30.0375 31.1578 17.5625 31.0516 17.425C31.0078 17.3688 29.1016 16.2688 26.8141 14.9813C24.5266 13.7 21.4891 11.9875 20.0641 11.1875C18.6391 10.3813 17.4578 9.71878 17.4453 9.70628C17.4328 9.70003 17.5703 9.52503 17.7641 9.33128C18.3891 8.66878 18.6516 8.02503 18.6453 7.15628C18.6328 6.26878 18.3078 5.54378 17.6453 4.93753C17.2391 4.56878 16.9266 4.39378 16.4078 4.25003L16.0328 4.14378L16.0141 3.03128C16.0016 2.13128 15.9828 1.89378 15.9016 1.80628C15.7766 1.66253 15.6328 1.63128 15.4328 1.70003ZM19.0266 12.975C20.6328 14.5125 21.9328 15.775 21.9203 15.7938C21.8578 15.85 11.8141 14.2188 11.8328 14.1563C11.8453 14.125 12.6516 13.2313 13.6328 12.1813L15.4078 10.2625L15.7203 10.2375C15.8953 10.225 16.0516 10.2063 16.0766 10.2C16.0953 10.1938 17.4266 11.4438 19.0266 12.975ZM13.4016 11.1375C13.2766 11.2875 11.7828 12.9 11.0703 13.6563L10.6578 14.0875L7.87656 14.8563C6.35156 15.275 5.08906 15.6125 5.08281 15.6C5.06406 15.5813 13.4453 11.0063 13.4953 11C13.5078 11 13.4703 11.0625 13.4016 11.1375ZM23.7141 14.2438C26.2266 15.6563 28.2391 16.8125 28.1953 16.8125C28.1516 16.8125 27.0578 16.6438 25.7703 16.4375C24.4828 16.2313 23.4078 16.0625 23.3703 16.0625C23.3391 16.0625 23.3141 16.025 23.3141 15.975C23.3141 15.9063 21.8141 14.4375 18.8766 11.6313L18.5953 11.3625L18.8766 11.5188C19.0328 11.6063 21.2078 12.8313 23.7141 14.2438ZM20.6891 16.5313C25.7266 17.3438 29.9391 18.0188 30.0516 18.0375L30.2516 18.075V23.8813V29.6875H20.7828H11.3141V22.35C11.3141 15.3938 11.3203 15.0125 11.4266 15.0375C11.4828 15.05 15.6516 15.725 20.6891 16.5313ZM10.4391 22.375V29.6875L8.08281 29.675L5.72031 29.6563V23.0063V16.35L8.03281 15.7125C9.30781 15.3625 10.3641 15.0688 10.3953 15.0688C10.4203 15.0625 10.4391 18.3563 10.4391 22.375ZM4.81406 23.1563V29.6875H3.28281H1.75156V23.5625V17.4438L1.98906 17.3813C2.11406 17.3438 2.77031 17.1625 3.43906 16.975C4.10781 16.7875 4.69531 16.6313 4.73906 16.6313C4.79531 16.625 4.81406 17.9688 4.81406 23.1563Z" fill="white"/>
<path d="M13.5727 17.225C13.4414 17.3938 13.4414 17.425 13.4414 22.45V27.5063L13.5977 27.6563C13.7852 27.8438 13.9352 27.85 14.1539 27.6813L14.3164 27.5563V22.4313C14.3164 17.3938 14.3164 17.3125 14.1914 17.1875C14.0102 17.0063 13.7289 17.025 13.5727 17.225Z" fill="white"/>
<path d="M16.8477 17.6563L16.6914 17.8063V22.6251C16.6914 27.4626 16.6977 27.6251 16.9039 27.7626C17.0352 27.8501 17.3164 27.8126 17.4414 27.6876C17.5664 27.5626 17.5664 27.4813 17.5664 22.6688V17.7688L17.4227 17.6376C17.2352 17.4563 17.0352 17.4626 16.8477 17.6563Z" fill="white"/>
<path d="M19.6188 18.1188L19.4688 18.2375V22.9375V27.6375L19.6188 27.7563C19.8063 27.9063 19.9437 27.9063 20.15 27.7438L20.3125 27.6188V22.9313C20.3125 18.3313 20.3125 18.25 20.1875 18.125C20.0312 17.9688 19.8063 17.9625 19.6188 18.1188Z" fill="white"/>
<path d="M22.4789 18.5063L22.3164 18.6313V23.1313C22.3164 27.5438 22.3164 27.625 22.4414 27.75C22.6227 27.9313 22.9039 27.9125 23.0602 27.7125C23.1914 27.55 23.1914 27.5 23.1914 23.1813C23.1914 20.1188 23.1727 18.775 23.1227 18.6688C23.0602 18.5313 22.8352 18.375 22.6977 18.375C22.6664 18.375 22.5727 18.4313 22.4789 18.5063Z" fill="white"/>
<path d="M25.25 18.8125C25.125 18.9375 25.125 19.0188 25.125 23.3C25.125 27.3813 25.1313 27.675 25.2375 27.7688C25.4625 27.9688 25.8188 27.9063 25.9313 27.6438C25.9812 27.5125 26 26.3 25.9875 23.2L25.9688 18.925L25.8188 18.8063C25.6313 18.65 25.4062 18.6563 25.25 18.8125Z" fill="white"/>
<path d="M27.8164 19.125C27.6914 19.25 27.6914 19.3313 27.6914 23.4688C27.6914 27.6062 27.6914 27.6875 27.8164 27.8125C27.8852 27.8812 28.0102 27.9375 28.0977 27.9375C28.1852 27.9375 28.3102 27.8812 28.3789 27.8125C28.5039 27.6875 28.5039 27.6062 28.5039 23.4688C28.5039 19.3313 28.5039 19.25 28.3789 19.125C28.3102 19.0562 28.1852 19 28.0977 19C28.0102 19 27.8852 19.0562 27.8164 19.125Z" fill="white"/>
<path d="M6.97891 21.7562L6.81641 21.8812V22.8812C6.81641 23.7937 6.82891 23.8875 6.94141 24C7.11016 24.1687 7.40391 24.1625 7.56641 23.9875C7.67891 23.8625 7.69141 23.7687 7.69141 22.8937C7.69141 21.9562 7.68516 21.925 7.53516 21.7812C7.34766 21.5937 7.19766 21.5875 6.97891 21.7562Z" fill="white"/>
<path d="M3.22891 22.2563C3.06641 22.3813 3.06641 22.4 3.06641 23.15C3.06641 23.8125 3.07891 23.9313 3.17891 24.0188C3.36016 24.1813 3.66016 24.1563 3.81016 23.9625C3.92266 23.8188 3.94141 23.7063 3.94141 23.1813C3.94141 22.5063 3.87891 22.3 3.64766 22.1938C3.44766 22.1 3.42266 22.1063 3.22891 22.2563Z" fill="white"/>
</svg>
