<svg width="29" height="29" viewBox="0 0 29 29" fill="none" xmlns="http://www.w3.org/2000/svg">
<path d="M6.04355 0.0623035C5.81699 0.192577 5.77734 0.44746 5.77734 1.68789C5.77734 2.42422 5.8 2.93965 5.83965 3.05859C5.93027 3.30781 6.16816 3.39844 6.76855 3.39844H7.25V4.18574C7.25 4.92773 7.25566 4.98438 7.38027 5.13164C7.49356 5.25625 7.57285 5.28457 7.92969 5.32422C8.39414 5.36953 8.61504 5.46016 8.84727 5.70371C9.19844 6.07187 9.26641 6.5873 9.03418 7.06309C8.83594 7.45957 8.53574 7.66348 8.09395 7.6918C7.47656 7.73711 6.99512 7.42558 6.84785 6.89883C6.81387 6.76289 6.77422 6.62129 6.76289 6.58164C6.75156 6.53633 6.6043 6.51367 6.29844 6.51367C6.05488 6.51367 5.83965 6.525 5.82266 6.54199C5.76602 6.6043 5.89062 7.16504 6.03223 7.44824C6.11152 7.6125 6.27578 7.85605 6.39473 7.99766L6.61563 8.24687L3.74961 9.67422C1.26309 10.909 0.838281 11.1016 0.57207 11.1186C0.322852 11.1412 0.237891 11.1752 0.130273 11.2941L0 11.4471V14.9814V18.5158L0.135938 18.6744L0.271875 18.833H7.73145H15.191L15.327 18.6744L15.4629 18.5158V14.9814V11.4471L15.327 11.2885C15.1967 11.1412 15.157 11.1299 14.6076 11.1016L14.0186 11.0676L11.583 9.74785C10.2463 9.02285 9.13613 8.4168 9.11914 8.3998C9.10215 8.38848 9.1418 8.3375 9.2041 8.29219C9.4873 8.09394 9.77051 7.75977 9.93477 7.41992C10.0934 7.08574 10.1104 7.00078 10.1104 6.51367C10.1104 6.04922 10.0877 5.93027 9.95742 5.65273C9.67422 5.04668 9.10781 4.5709 8.48477 4.41797L8.21289 4.35V3.87422V3.39844H8.69434C9.54395 3.39844 9.68555 3.25684 9.68555 2.42422V1.97676L9.9291 2.01074C10.184 2.04473 22.7129 3.3418 22.8035 3.3418C22.8318 3.3418 22.9281 3.47773 23.0131 3.64766C23.1037 3.81758 23.285 4.0668 23.4266 4.2084L23.6758 4.46328V8.51875V12.5742H21.4158H19.1615L19.0086 12.7215L18.8613 12.8744V16.3465V19.8242H18.3006C17.7852 19.8242 17.7229 19.8355 17.5756 19.9602L17.417 20.0961V24.4121V28.7281L17.5756 28.8641L17.7342 29H23.2H28.6715L28.8357 28.8357L29 28.6715V20.8154C29 14.9531 28.983 12.9311 28.932 12.8404C28.8018 12.5912 28.7395 12.5799 27.6293 12.5742H26.5645V8.54707V4.51992L26.859 4.19707C27.2781 3.74394 27.4764 3.28516 27.5104 2.70176C27.652 0.47578 25.0238 -0.719337 23.4492 0.849609C23.098 1.19512 22.8941 1.56894 22.7979 2.03906C22.7299 2.34492 22.7299 2.35059 22.5373 2.33359C22.2428 2.31094 10.2633 1.08183 9.96309 1.04219L9.70254 1.0082L9.66856 0.634375C9.6459 0.317186 9.61758 0.23789 9.4873 0.130272C9.34004 0 9.32305 0 7.74277 0C6.71191 0.00566292 6.10586 0.0226555 6.04355 0.0623035ZM8.71133 1.68223L8.69434 2.40723H7.73145H6.76855L6.75156 1.76152C6.7459 1.40469 6.75156 1.07617 6.76289 1.03652C6.78555 0.979881 7.01211 0.962891 7.75977 0.962891H8.72832L8.71133 1.68223ZM25.7375 1.23476C26.0037 1.35371 26.2982 1.63125 26.4342 1.88613C26.5758 2.16367 26.5984 2.72441 26.4795 3.03594C26.2643 3.60234 25.7432 3.96484 25.1314 3.96484C24.582 3.96484 24.1402 3.70996 23.8854 3.24551C23.217 2.00508 24.4461 0.668358 25.7375 1.23476ZM25.6016 8.75098V12.5742H25.1201H24.6387V8.75098V4.92773H25.1201H25.6016V8.75098ZM9.8668 9.91777C11.0279 10.5408 11.9908 11.0676 12.0021 11.0789C12.0135 11.0902 10.0141 11.1016 7.55586 11.0959H3.08691L5.38086 9.94043C6.64395 9.30605 7.6918 8.78496 7.71445 8.78496C7.73711 8.7793 8.70566 9.28906 9.8668 9.91777ZM14.5 14.9814V17.8984H7.73145H0.962891V14.9814V12.0645H7.73145H14.5V14.9814ZM25.1484 16.6807V19.8242H22.4863H19.8242V16.6807V13.5371H22.4863H25.1484V16.6807ZM28.0371 14.7039V15.8707L27.9012 15.7631C27.8219 15.7064 27.3914 15.3553 26.9383 14.9814L26.117 14.3018V13.9166L26.1113 13.5371H27.0742H28.0371V14.7039ZM26.9326 16.2219C27.3064 16.5277 27.635 16.8053 27.6633 16.8279C27.7029 16.8619 26.2303 17.8984 26.1396 17.8984C26.1227 17.8984 26.1113 17.3717 26.1113 16.7316C26.1113 15.8197 26.1283 15.5762 26.185 15.6102C26.2189 15.6328 26.5588 15.9104 26.9326 16.2219ZM28.0258 19.626L28.0088 20.215L27.2271 19.5637C26.791 19.2012 26.4625 18.884 26.4908 18.8613C26.5135 18.8387 26.8703 18.6008 27.2725 18.3289L28.0088 17.8418L28.0258 18.4365C28.0314 18.765 28.0314 19.2975 28.0258 19.626ZM26.8646 20.5152C27.2441 20.8268 27.5896 21.1213 27.635 21.1609C27.6973 21.2176 27.5727 21.3195 26.9383 21.7443C26.5191 22.0275 26.1566 22.2598 26.1396 22.2598C26.1227 22.2598 26.1113 21.7387 26.1113 21.0986C26.1113 20.4586 26.1283 19.9375 26.1453 19.9375C26.1623 19.9375 26.4852 20.198 26.8646 20.5152ZM25.1484 24.4121V28.0371H21.75H18.3516V24.4121V20.7871H21.75H25.1484V24.4121ZM28.0371 23.3982V24.5934L27.7426 24.3441C27.5783 24.2082 27.2158 23.908 26.9439 23.6758C26.6324 23.4209 26.4682 23.2396 26.4965 23.2113C26.5814 23.1264 27.9465 22.2088 27.9975 22.2088C28.0201 22.2031 28.0371 22.7412 28.0371 23.3982ZM27.6576 25.6016C27.6123 25.6412 26.3152 26.5078 26.185 26.5871C26.1283 26.6211 26.1113 26.3719 26.1113 25.4316V24.2422L26.9043 24.9049C27.3404 25.2674 27.6803 25.5846 27.6576 25.6016ZM28.0371 27.3008V28.0371H27.0742C25.7941 28.0371 25.7941 28.0258 27.0346 27.1932C27.5387 26.8533 27.9691 26.5701 27.9975 26.5701C28.0201 26.5645 28.0371 26.893 28.0371 27.3008Z" fill="white"/>
<path d="M24.7879 1.92011C24.5727 2.06171 24.4141 2.31093 24.4141 2.50917C24.4141 2.87167 24.6973 3.20018 25.0371 3.23417C25.326 3.26249 25.4336 3.22284 25.6318 3.03026C25.8018 2.85468 25.8301 2.79237 25.8301 2.55448C25.8301 1.98808 25.2354 1.62558 24.7879 1.92011ZM25.3203 2.40722C25.4053 2.50917 25.377 2.6621 25.2523 2.7414C25.0654 2.85468 24.8615 2.62811 24.9465 2.40155C24.9861 2.2996 25.2297 2.2996 25.3203 2.40722Z" fill="white"/>
<path d="M2.4375 14.9815V16.9412L2.90762 16.9242L3.37207 16.9072V14.9815V13.0557L2.90762 13.0387L2.4375 13.0217V14.9815Z" fill="white"/>
<path d="M4.84333 13.101C4.82634 13.135 4.82068 14.0129 4.82634 15.0381L4.84333 16.9072L5.31345 16.9242L5.77791 16.9412V14.9815V13.0274H5.32478C5.00759 13.0274 4.86033 13.05 4.84333 13.101Z" fill="white"/>
<path d="M7.25 14.9814V16.9355H7.73145H8.21289V14.9814V13.0273H7.73145H7.25V14.9814Z" fill="white"/>
<path d="M9.6875 14.9815V16.9412L10.1576 16.9242L10.6221 16.9072V14.9815V13.0557L10.1576 13.0387L9.6875 13.0217V14.9815Z" fill="white"/>
<path d="M12.0933 13.101C12.0763 13.135 12.0707 14.0129 12.0763 15.0381L12.0933 16.9072L12.5635 16.9242L13.0279 16.9412V14.9815V13.0274H12.5748C12.2576 13.0274 12.1103 13.05 12.0933 13.101Z" fill="white"/>
<path d="M0.300195 21.3252C0.203906 21.3648 0.0962891 21.4498 0.0623047 21.5178C0.0169922 21.5914 0 22.7412 0 25.1484V28.6715L0.164258 28.8357L0.328516 29H7.73145H15.1344L15.2986 28.8357L15.4629 28.6715V25.1484C15.4629 22.7355 15.4459 21.5914 15.4006 21.5121C15.2477 21.2346 15.4742 21.2402 7.72012 21.2402C1.69355 21.2459 0.453125 21.2572 0.300195 21.3252ZM14.5 25.1484V28.0371H7.73145H0.962891V25.1484V22.2598H7.73145H14.5V25.1484Z" fill="white"/>
<path d="M2.4375 25.1484V27.0742H2.91895H3.40039V25.1484V23.2227H2.91895H2.4375V25.1484Z" fill="white"/>
<path d="M4.8125 25.1484V27.0742H5.29395H5.77539V25.1484V23.2227H5.29395H4.8125V25.1484Z" fill="white"/>
<path d="M7.25 25.1484V27.0742H7.73145H8.21289V25.1484V23.2227H7.73145H7.25V25.1484Z" fill="white"/>
<path d="M9.6875 25.1484V27.0742H10.1689H10.6504V25.1484V23.2227H10.1689H9.6875V25.1484Z" fill="white"/>
<path d="M12.0625 25.1484V27.0742H12.5439H13.0254V25.1484V23.2227H12.5439H12.0625V25.1484Z" fill="white"/>
</svg>
