<svg width="114" height="114" viewBox="0 0 114 114" fill="none" xmlns="http://www.w3.org/2000/svg">
<path d="M40.9907 5.14341C32.1957 6.85786 22.9332 16.6102 18.8364 28.4555C17.0774 33.5098 16.6098 38.8313 17.5672 42.3938C17.8122 43.3735 18.0125 44.175 17.9903 44.2196C17.9457 44.2418 16.877 44.7762 15.5856 45.4219C10.509 47.9602 6.34536 51.6118 4.51957 55.1297C2.84965 58.336 2.82739 58.5141 2.73832 66.2403C2.627 73.9442 2.76059 75.2579 4.00746 77.8852C7.14692 84.6094 15.8973 90.1981 26.8297 92.4692C31.7727 93.4934 33.22 93.627 39.6325 93.627C46.468 93.627 48.8059 93.3821 54.0383 92.0684C58.8032 90.8661 63.234 89.0848 66.2844 87.0809L67.6649 86.1903L69.2012 87.1032L70.7598 88.0383L70.8489 89.5969C70.9602 91.2891 71.4946 92.6028 72.4075 93.4489C73.12 94.1168 98.0129 108.567 99.0149 108.901C101.486 109.703 105.539 107.476 108.077 103.891C110.17 100.93 111.194 98.1024 111.216 95.1856C111.216 91.5786 110.504 90.5766 106.095 88.0606C104.626 87.2368 99.1707 84.075 93.9606 81.0469C88.7504 78.0188 84.1637 75.3692 83.7407 75.1465C82.5606 74.5454 80.3786 74.7458 78.6864 75.6364L77.3504 76.3266L76.6157 75.8813C75.9922 75.4805 75.9032 75.3247 76.0145 74.7235C76.0813 74.345 76.1481 70.827 76.1703 66.9083C76.2149 60.095 76.1926 59.7165 75.7028 58.2247C74.4114 54.1946 71.7172 50.7879 67.5313 47.9157C64.57 45.8895 59.1594 43.3512 56.2871 42.6387C55.5746 42.4606 55.5301 42.1711 55.9754 41.0801C56.5989 39.5883 58.3801 33.6879 59.3821 29.836C60.2504 26.4739 60.384 25.5387 60.4954 22.9336C60.6512 19.2153 60.2727 17.1446 59.0036 14.5618C57.8012 12.0903 56.6434 11.0883 51.5223 8.12701C46.1786 5.03208 44.286 4.49771 40.9907 5.14341ZM47.3141 7.32544C48.2938 7.81528 49.2957 8.34967 49.5184 8.52779C49.9192 8.83951 49.8746 8.86177 48.7391 9.01763C42.0817 9.93052 34.8231 15.675 29.6797 24.0915C25.6497 30.7043 23.3118 39.0317 24.0465 44.2418C24.7813 49.6524 28.8114 57.4008 35.5133 66.3516C37.6063 69.1348 37.6286 69.2016 36.7157 68.645C36.2926 68.3778 35.5356 67.9325 35.0012 67.6208C32.8192 66.3961 24.9149 55.2633 21.6418 48.8063C18.8586 43.329 18.0571 40.1895 18.4801 36.1817C20.0387 21.1969 33.22 5.67779 43.8629 6.34576C45.2211 6.43481 45.8446 6.61294 47.3141 7.32544ZM53.927 11.1774C58.2688 13.1813 60.2282 19.3934 58.7586 26.5629C57.3114 33.7102 52.7024 47.0473 45.8668 63.7911C43.5512 69.4465 42.9278 70.6266 41.9258 71.0942C41.3914 71.3391 41.2801 71.2723 40.4563 70.3594C38.92 68.6227 33.977 61.9207 32.0399 58.8926C29.6575 55.1743 27.1637 50.2536 26.2508 47.4926C25.6942 45.7782 25.5161 44.7985 25.4493 42.9727C24.9372 31.595 34.0215 16.6102 44.3082 11.8231C46.6239 10.7321 47.9375 10.4649 50.4313 10.5317C52.2793 10.5762 52.8805 10.6876 53.927 11.1774ZM57.8235 44.5536C60.4508 45.4665 64.2805 47.359 66.4625 48.784C68.8004 50.3426 71.8286 53.3708 72.9641 55.3301C75.302 59.3157 75.4356 63.702 73.3426 67.7098C69.6688 74.7235 59.2707 80.134 46.5793 81.6036C42.9723 82.0266 36.3149 82.0266 32.7079 81.6036C26.518 80.8911 21.575 79.4883 16.5875 77.0614C12.9137 75.2579 10.5536 73.5657 8.21567 71.0942C3.69575 66.2626 2.87192 60.4735 5.94457 55.2188C7.03559 53.3708 10.1082 50.2758 12.2457 48.8731C14.2942 47.5372 17.8122 45.6446 18.2575 45.6446C18.5692 45.6446 20.2391 49.0958 20.0164 49.2961C19.9719 49.3184 19.059 49.9196 18.0125 50.6098C15.3629 52.3465 13.2032 54.6844 11.9786 57.1336L11.0211 59.0708V61.7872V64.5036L11.9563 66.3739C15.0289 72.5637 23.245 77.0614 33.9547 78.375C36.5153 78.6868 42.7496 78.6868 45.3325 78.375C53.4594 77.3731 60.4286 74.3672 64.4586 70.1145C69.0453 65.2606 69.3571 59.6497 65.327 54.5508C63.234 51.9012 59.3821 49.2739 55.3297 47.7598C54.595 47.4704 53.9938 47.1586 53.9938 47.0696C53.9938 46.9583 54.2387 46.2012 54.5059 45.3551C54.9067 44.2418 55.1293 43.8633 55.4411 43.8633C55.6637 43.8633 56.7325 44.175 57.8235 44.5536ZM57.5118 50.3426C58.5137 50.8547 59.7828 51.5672 60.3395 51.9458C61.7868 52.9254 64.236 55.3524 65.0153 56.5547C66.6629 59.1375 67.086 62.4329 66.1063 65.0379C65.8836 65.5946 65.8614 65.5946 63.9465 63.6797C61.0743 60.8297 56.5098 58.336 51.8786 57.0891C51.077 56.8665 50.409 56.6883 50.3645 56.6661C50.3422 56.6438 50.9211 55.0184 51.6782 53.0813C52.4352 51.1442 53.1254 49.3184 53.2368 49.0512L53.4149 48.5836L54.5504 49.0067C55.1739 49.2516 56.5098 49.8528 57.5118 50.3426ZM21.7754 52.1461C22.2653 53.0368 23.2227 54.6176 23.8907 55.6641C24.5809 56.6883 25.1153 57.5567 25.093 57.579C25.0707 57.6012 24.0911 58.002 22.9332 58.4918C19.7047 59.8055 17.3223 61.3196 15.0512 63.5016C13.9379 64.5704 13.025 65.4165 13.0028 65.3942C12.8024 65.0602 12.4461 63.5684 12.3348 62.4774C11.9563 58.7368 14.2942 54.8403 18.725 51.879C19.8383 51.1442 20.7735 50.543 20.818 50.543C20.8625 50.543 21.2856 51.2778 21.7754 52.1461ZM53.1477 58.9149C57.9793 60.4958 62.5883 63.4348 64.4586 66.1067C65.0375 66.9528 65.0598 67.0864 64.7704 67.5985C64.2582 68.6004 61.1633 71.3168 59.2707 72.4301C46.8688 79.8891 25.427 78.5086 16.1422 69.6692C15.2961 68.8454 14.4055 67.8879 14.2051 67.5317L13.8266 66.8637L14.8731 65.6168C16.877 63.1899 20.5286 60.7852 24.3805 59.3379C25.1821 59.0262 25.8723 58.7813 25.9168 58.7813C25.9614 58.7813 26.6961 59.761 27.5645 60.9411C28.4106 62.1434 30.0137 64.2586 31.127 65.6391L33.1309 68.1774L36.9161 70.3817C41.0129 72.7641 41.6141 72.9422 42.8832 72.1629C43.284 71.918 43.8629 71.3836 44.1969 70.9383C44.709 70.2704 47.4477 63.9469 49.2289 59.2934C49.8301 57.6903 49.5407 57.7125 53.1477 58.9149ZM7.43637 72.3411C15.875 81.0915 33.1532 85.3219 49.5407 82.6055C54.8399 81.7372 58.536 80.6016 62.7219 78.5977C67.6204 76.2598 71.5836 73.0981 73.6989 69.8473L74.7008 68.3333L74.7676 71.161C74.7899 72.7418 74.7676 74.1446 74.7231 74.3004C74.6563 74.4563 74.2555 74.5899 73.7657 74.5899C71.6282 74.5899 69.1344 76.6161 67.7317 79.4661C66.9746 81.0024 66.9079 81.3141 66.8856 83.1399L66.8411 85.1661L65.8836 85.7895C63.9911 87.0141 59.5379 89.018 56.7102 89.9309C53.5039 90.9551 49.3848 91.8012 45.711 92.1797C42.0371 92.5805 33.5985 92.3579 30.1473 91.7567C18.1907 89.7083 9.30668 84.7875 5.58832 78.1301C4.49731 76.1708 4.00746 73.8551 4.00746 70.6043V67.7989L4.92036 69.2461C5.43246 70.0254 6.54575 71.4282 7.43637 72.3411ZM74.9235 76.5047C75.5469 76.8387 76.0813 77.1282 76.1258 77.1727C76.1703 77.2172 75.7028 77.8184 75.0571 78.5086C74.4336 79.1766 73.5207 80.4458 73.0086 81.2696C72.118 82.7836 71.0493 85.4778 71.027 86.2348C71.027 86.9473 68.8227 85.5668 68.4219 84.6094C67.42 82.2715 69.6911 77.5958 72.452 76.3489C73.6098 75.8145 73.6098 75.8145 74.9235 76.5047ZM94.0496 82.6501L105.249 89.1739L103.735 89.8864C99.0371 92.1797 95.2297 98.6813 95.5637 103.891C95.6305 104.804 95.6528 105.539 95.6305 105.539C95.586 105.539 74.4782 93.293 73.7434 92.8254C72.3852 92.0016 71.8286 89.5079 72.3629 86.7915C73.3871 81.4922 78.1297 76.1485 81.7813 76.1485C82.7832 76.1485 83.5848 76.5715 94.0496 82.6501ZM108.344 91.0442C110.37 92.2688 110.459 96.5438 108.567 100.507C106.184 105.472 101.575 108.745 98.9258 107.387C96.4098 106.096 96.2539 101.932 98.5473 97.3231C100.418 93.5602 103.891 90.6211 106.518 90.6211C107.231 90.6211 107.899 90.777 108.344 91.0442Z" fill="black"/>
<path d="M44.0203 18.9036C38.2089 20.8184 32.6871 29.0344 32.6648 35.8477C32.6425 38.2301 33.1324 39.9001 34.2011 41.1469C35.6929 42.9059 37.5632 43.4626 39.8788 42.8614C45.4675 41.4364 50.9003 34.445 51.88 27.3868C52.3921 23.6907 51.3011 20.5512 49.0523 19.2153C47.7386 18.4583 45.7792 18.3247 44.0203 18.9036ZM47.8054 20.1505C48.8742 20.5958 49.3863 21.0633 49.9206 22.1321C51.5683 25.3606 50.366 31.1497 47.0929 35.7364C45.9128 37.384 43.4191 39.811 42.0831 40.5903C40.7695 41.3473 38.632 41.904 37.63 41.7258C33.4441 40.9911 32.7316 34.7122 36.0937 28.2774C38.2535 24.136 41.3706 21.1747 44.6437 20.1282C45.8683 19.7497 46.848 19.7497 47.8054 20.1505Z" fill="#3F9755"/>
</svg>
