<svg width="114" height="114" viewBox="0 0 114 114" fill="none" xmlns="http://www.w3.org/2000/svg">
<path d="M43.2919 31.4923C43.6105 32.139 46.8151 37.5699 49.9391 42.8133C51.5056 45.4425 53.0569 48.0329 54.2244 49.9662C54.808 50.9327 55.2963 51.7358 55.6426 52.2976C55.8156 52.5782 55.9542 52.8001 56.0519 52.9526C56.1004 53.0283 56.1406 53.0896 56.1707 53.1332C56.1851 53.1542 56.2006 53.176 56.2152 53.1946C56.2217 53.2029 56.234 53.2182 56.2497 53.2343C56.2569 53.2416 56.2731 53.2577 56.2961 53.2746C56.3079 53.2829 56.3374 53.3007 56.3557 53.3099C56.3838 53.3217 56.4583 53.3401 56.5049 53.3432C56.5515 53.3401 56.626 53.3217 56.6541 53.3099C56.6724 53.3007 56.7019 53.2829 56.7138 53.2746C56.7367 53.2577 56.753 53.2416 56.7601 53.2343C56.7758 53.2182 56.7881 53.2029 56.7946 53.1946C56.8092 53.176 56.8247 53.1542 56.8392 53.1332C56.8692 53.0896 56.9095 53.0283 56.958 52.9526C57.0557 52.8001 57.1942 52.5782 57.3672 52.2976C57.7136 51.7358 58.2018 50.9327 58.7855 49.9662C59.953 48.0329 61.5042 45.4425 63.0707 42.8133C66.1955 37.5686 69.401 32.1362 69.7182 31.4919M43.2919 31.4923L69.4043 31.3369M43.2919 31.4923C42.6787 30.2552 42.3293 28.5573 42.2459 26.8396C42.1624 25.12 42.3435 23.3405 42.8231 21.9339L42.8234 21.9329C44.3621 17.4643 48.0482 14.17 53.0263 12.7686M43.2919 31.4923L43.1543 22.0469C44.6514 17.6992 48.2403 14.4795 53.1211 13.1055M69.7182 31.4919C69.7182 31.4917 69.7183 31.4915 69.7184 31.4914L69.4043 31.3369M69.7182 31.4919C69.7181 31.492 69.718 31.4922 69.7179 31.4923L69.4043 31.3369M69.7182 31.4919C70.3312 30.2548 70.6805 28.5571 70.7639 26.8396C70.8474 25.12 70.6663 23.3405 70.1868 21.9339L70.1861 21.932C68.8176 17.9949 65.4361 14.615 61.4202 13.2061M69.4043 31.3369C70.5733 28.9785 70.7784 24.7539 69.8555 22.0469C68.5225 18.2119 65.2207 14.9102 61.3037 13.5361M61.4202 13.2061L61.3037 13.5361M61.4202 13.2061C61.42 13.206 61.4198 13.2059 61.4196 13.2059L61.3037 13.5361M61.4202 13.2061C60.7114 12.9559 60.1851 12.8045 59.5282 12.7103C58.8801 12.6173 58.1126 12.5813 56.9252 12.5505M61.3037 13.5361C59.9092 13.0439 59.294 12.9619 56.9151 12.9004M56.9151 12.9004L56.9261 12.5506C56.9258 12.5506 56.9255 12.5505 56.9252 12.5505M56.9151 12.9004C54.9668 12.8389 53.8389 12.9004 53.1211 13.1055M56.9151 12.9004L56.9241 12.5505C56.9245 12.5505 56.9248 12.5505 56.9252 12.5505M56.9252 12.5505C54.9823 12.4892 53.8032 12.5469 53.0263 12.7686M53.1211 13.1055L53.0263 12.7686M53.1211 13.1055L53.025 12.7689C53.0254 12.7688 53.0259 12.7687 53.0263 12.7686M39.9038 22.0338L39.9038 22.034C39.6878 22.8488 39.5405 24.1268 39.4845 25.4328C39.4286 26.7362 39.4652 28.03 39.6027 28.8777C39.7419 29.6307 40.1433 30.9977 40.485 31.8832C40.5597 32.0609 40.8319 32.5726 41.2719 33.362C41.7092 34.1464 42.2997 35.1831 42.9933 36.3869C44.3803 38.7941 46.1772 41.8659 47.9802 44.917C49.7832 47.9682 51.5916 50.9976 53.0015 53.3201C53.7066 54.4815 54.3113 55.465 54.7655 56.1856C54.9927 56.5462 55.1813 56.8392 55.3254 57.0553C55.4768 57.2823 55.5629 57.3991 55.592 57.4303L55.5922 57.4302L55.5994 57.4385C55.8055 57.674 56.0687 57.7906 56.5049 57.7906C56.9412 57.7906 57.2044 57.674 57.4105 57.4385L57.4103 57.4384L57.4178 57.4303C57.4469 57.3991 57.5331 57.2823 57.6845 57.0553C57.8286 56.8392 58.0171 56.5462 58.2443 56.1856C58.6986 55.465 59.3033 54.4815 60.0083 53.3201C61.4182 50.9976 63.2266 47.9682 65.0296 44.917C66.8326 41.8659 68.6296 38.7941 70.0165 36.3869C70.7101 35.1831 71.3006 34.1464 71.7379 33.362C72.1796 32.5696 72.4522 32.057 72.5257 31.8811C73.3859 29.74 73.6666 27.9463 73.5255 25.3471L73.5255 25.3468C73.3845 22.707 73.0271 21.3377 71.8998 19.0225C70.8551 16.9135 69.3073 14.9641 67.5212 13.4991C66.8213 12.9275 65.6523 12.2179 64.418 11.5868C63.1836 10.9556 61.9173 10.4198 61.0294 10.183C60.333 9.99936 58.8008 9.85617 57.2168 9.79456C55.636 9.73307 54.0762 9.75558 53.3254 9.88181C49.4902 10.5853 45.5052 12.9206 43.0364 15.9511C42.452 16.6743 41.7828 17.7587 41.1993 18.8902C40.6152 20.0227 40.1305 21.1765 39.9038 22.0338Z" fill="black" stroke="white" stroke-width="0.7"/>
<path d="M55.07 18.1709C50.4353 18.9502 47.2976 23.2979 47.9333 28.0352C48.2819 30.7422 50.2097 33.3467 52.7937 34.6182C54.0651 35.2334 54.2497 35.2744 56.5056 35.2744C58.7614 35.2744 58.946 35.2334 60.2175 34.6182C63.6628 32.916 65.611 29.2861 65.0778 25.5127C64.4421 20.7549 59.8278 17.3711 55.07 18.1709ZM58.9255 22.1289C60.6892 23.0107 61.7146 24.7334 61.7146 26.7637C61.7146 28.8145 60.7712 30.373 58.946 31.3779C55.4802 33.2646 51.2966 30.7422 51.2966 26.7637C51.3171 22.7441 55.3161 20.3037 58.9255 22.1289Z" fill="#3F9755"/>
<path d="M102.963 45.1303C102.964 45.1315 102.965 45.1321 102.965 45.1322C102.964 45.1324 102.951 45.1225 102.915 45.0991C102.872 45.0712 102.81 45.0338 102.731 44.9867C102.573 44.893 102.351 44.7665 102.074 44.6112C101.519 44.301 100.748 43.8798 99.8293 43.3837C97.9924 42.3917 95.5691 41.1029 93.1126 39.8087C90.6562 38.5145 88.1675 37.2153 86.1997 36.2028C84.2213 35.1848 82.7947 34.4697 82.4396 34.3285C82.2392 34.2494 82.1339 34.2116 82.0195 34.1989C81.9111 34.1869 81.7696 34.1959 81.5156 34.2641C81.0043 34.4014 80.1618 34.7413 78.4514 35.4313L78.2925 35.4954C78.2921 35.4956 78.2916 35.4958 78.2912 35.4959C77.178 35.9555 76.2531 36.3674 75.586 36.6958C75.2518 36.8604 74.9873 37.0017 74.798 37.1156C74.7031 37.1727 74.632 37.22 74.5824 37.2575C74.5402 37.2893 74.526 37.3048 74.5258 37.3045L74.5254 37.3049C74.196 37.7598 74.2142 38.4067 74.6178 38.9112L74.619 38.9128C74.7822 39.1192 74.9135 39.2432 75.0425 39.3172C75.1632 39.3864 75.3033 39.424 75.5074 39.4159C75.9526 39.3984 76.6248 39.1721 77.8392 38.6635L77.8444 38.6614C78.4598 38.4152 79.0217 38.1935 79.4357 38.0383C79.642 37.9609 79.8161 37.8983 79.9433 37.8573C80.0057 37.8372 80.0648 37.8196 80.114 37.8084C80.1369 37.8032 80.1705 37.7963 80.2066 37.7937C80.2142 37.7932 80.2248 37.7926 80.2375 37.7925C80.2534 37.7925 80.2726 37.7934 80.2938 37.7965C80.3206 37.8003 80.4158 37.8156 80.4982 37.898C80.5364 37.9432 80.5755 38.0147 80.5834 38.0363C80.587 38.0477 80.5919 38.0661 80.5937 38.0737C80.5967 38.0874 80.5986 38.0994 80.5995 38.1056C80.6015 38.1196 80.6034 38.1352 80.6049 38.1497C80.6081 38.1798 80.6119 38.2214 80.6163 38.2724C80.625 38.3751 80.6366 38.525 80.6508 38.7179C80.6793 39.1041 80.7185 39.6674 80.767 40.382C80.8639 41.8116 80.9977 43.849 81.1557 46.2914C81.4716 51.1765 81.8844 57.6828 82.292 64.1891C82.6996 70.6953 83.102 77.2017 83.3975 82.0867C83.5452 84.5292 83.6662 86.5667 83.7477 87.9963C83.7885 88.7109 83.8194 89.2744 83.8388 89.6607C83.8486 89.8536 83.8555 90.0037 83.8593 90.1068C83.8613 90.1579 83.8625 90.1999 83.8629 90.2306C83.8631 90.2452 83.8631 90.2617 83.8626 90.2769C83.8624 90.2835 83.8618 90.2972 83.86 90.3131C83.8589 90.3221 83.8551 90.3441 83.8521 90.3578C83.8447 90.3841 83.8029 90.4704 83.759 90.5239C83.7178 90.565 83.6724 90.5882 83.6723 90.5883C83.6589 90.5956 83.6458 90.602 83.6357 90.6068C83.6147 90.6167 83.5893 90.6278 83.562 90.6393C83.5064 90.6628 83.4293 90.6938 83.3338 90.7312C83.142 90.8065 82.867 90.9114 82.5218 91.0414C81.8308 91.3015 80.8531 91.6638 79.6846 92.0936C77.3472 92.9533 74.2435 94.084 71.1363 95.2094C68.0291 96.3349 64.9177 97.4554 62.565 98.2945C61.3887 98.7141 60.4015 99.0635 59.699 99.3082C59.3479 99.4305 59.0667 99.527 58.8683 99.5932C58.7693 99.6261 58.6889 99.6522 58.6298 99.6703C58.6007 99.6793 58.5738 99.6872 58.5512 99.6932C58.5401 99.6961 58.5267 99.6995 58.5129 99.7024L58.5121 99.7025C58.5045 99.7041 58.4705 99.7113 58.4304 99.7113C58.2321 99.7113 58.1249 99.5722 58.0863 99.5077C58.0451 99.4388 58.0221 99.3619 58.0071 99.2994C57.9756 99.1681 57.9522 98.9804 57.9328 98.731C57.8934 98.2254 57.8651 97.3926 57.8446 96.0753C57.8036 93.4367 57.7933 88.8193 57.7933 80.9043V62.5759L57.3882 62.1871L57.3881 62.1872L57.3794 62.1782C57.1112 61.9017 56.7997 61.777 56.5027 61.777C56.2057 61.777 55.8942 61.9017 55.626 62.1782L55.6262 62.1784L55.6172 62.1871L55.2121 62.5759V80.9043C55.2121 88.3684 55.2018 92.9853 55.1633 95.7363C55.1441 97.1105 55.1178 98.0256 55.0816 98.5989C55.0637 98.8833 55.0426 99.0962 55.0161 99.2429C55.0034 99.3129 54.9859 99.3897 54.9571 99.4565C54.9431 99.489 54.9173 99.5413 54.8713 99.5903C54.822 99.6428 54.729 99.7113 54.5955 99.7113C54.554 99.7113 54.5187 99.7035 54.512 99.7021L54.5113 99.7019C54.4978 99.699 54.4847 99.6956 54.474 99.6927C54.4519 99.6868 54.4255 99.6789 54.3967 99.67C54.3384 99.6519 54.2585 99.6258 54.16 99.5927C53.9623 99.5265 53.6817 99.4298 53.3308 99.3073C52.6287 99.0621 51.6409 98.7119 50.4634 98.2916C48.1082 97.4509 44.9917 96.3285 41.8794 95.2018C38.7671 94.075 35.6583 92.9437 33.3185 92.085C32.1487 91.6557 31.1705 91.2944 30.48 91.0357C30.1349 90.9065 29.8606 90.8025 29.6698 90.7283C29.5746 90.6913 29.4983 90.661 29.4437 90.6384C29.4168 90.6272 29.3921 90.6166 29.3719 90.6073C29.3623 90.6029 29.3497 90.5969 29.3369 90.5901C29.3306 90.5867 29.3207 90.5812 29.3094 90.5741L29.309 90.5739C29.3019 90.5694 29.2747 90.5521 29.2464 90.5239L29.2327 90.5101L29.2206 90.495C29.1891 90.4485 29.1581 90.3755 29.1521 90.3526C29.1495 90.34 29.1462 90.3198 29.1452 90.3114C29.1435 90.2962 29.143 90.283 29.1428 90.2763C29.1423 90.2611 29.1423 90.2446 29.1425 90.2298C29.1429 90.1988 29.1441 90.1566 29.146 90.1052C29.1498 90.0015 29.1567 89.8509 29.1663 89.6575C29.1856 89.2702 29.2163 88.7059 29.2568 87.9905C29.3378 86.5595 29.4581 84.5211 29.605 82.0782C29.8989 77.1922 30.2994 70.6864 30.7057 64.1814C31.1121 57.6765 31.5242 51.172 31.8411 46.2885C31.9996 43.8468 32.1343 41.81 32.2326 40.3808C32.2817 39.6664 32.3218 39.1031 32.3512 38.7168C32.3659 38.5239 32.3781 38.3736 32.3875 38.2704C32.3921 38.2192 32.3963 38.1768 32.4 38.1457C32.4018 38.1309 32.404 38.1139 32.4067 38.098C32.4078 38.0911 32.4104 38.0768 32.4147 38.0603C32.4172 38.0512 32.4243 38.0291 32.4295 38.0155C32.4384 37.9956 32.4726 37.943 32.5095 37.9004L32.5072 37.898C32.5887 37.8165 32.6828 37.8008 32.7082 37.7969C32.7453 37.7912 32.7766 37.7922 32.7937 37.7931C32.8294 37.7952 32.8628 37.8014 32.8862 37.8062C32.936 37.8166 32.996 37.8333 33.0596 37.8527C33.1894 37.8923 33.3661 37.9531 33.5749 38.0297C33.9935 38.183 34.5569 38.4053 35.1653 38.6631C36.3882 39.1605 37.0663 39.3829 37.5134 39.4005C37.7192 39.4086 37.8582 39.3716 37.9758 39.3049C38.1011 39.2338 38.2279 39.1144 38.3852 38.9143C38.8067 38.3747 38.8049 37.7066 38.465 37.2764C38.4588 37.2718 38.4424 37.2594 38.4101 37.2385C38.3591 37.2057 38.2877 37.1636 38.1958 37.1127C38.0124 37.0114 37.7625 36.8836 37.4632 36.7373C36.8655 36.4451 36.0842 36.0857 35.2741 35.7279C34.4643 35.3702 33.6286 35.0156 32.9226 34.7329C32.2143 34.4493 31.6599 34.2478 31.3884 34.181C31.3084 34.1668 31.145 34.1738 30.9018 34.2328C30.6638 34.2906 30.3835 34.3897 30.0937 34.5249C28.6666 35.1978 23.7389 37.7663 19.1091 40.221C16.7962 41.4473 14.5613 42.6432 12.8809 43.5566C12.0404 44.0134 11.3398 44.3989 10.8378 44.682C10.5865 44.8237 10.3869 44.9387 10.245 45.0236C10.1738 45.0662 10.1196 45.0997 10.0817 45.1245C10.0525 45.1436 10.0418 45.1518 10.0417 45.1517C10.0407 45.1526 10.0396 45.1535 10.0384 45.1546C10.0123 45.177 9.93923 45.2399 9.83274 45.7877C9.72255 46.3546 9.58804 47.365 9.38532 49.2344C8.98063 52.9662 8.30932 60.0687 7.01716 73.7595C6.93974 74.5856 6.86449 75.3884 6.79137 76.1685C5.5372 89.5487 4.90841 96.2569 4.6981 99.6751C4.58592 101.498 4.59678 102.342 4.67898 102.757C4.7176 102.953 4.76388 103.007 4.78271 103.025C4.81012 103.053 4.83383 103.065 4.90903 103.103C4.93452 103.116 4.96593 103.132 5.00541 103.153L5.01465 103.157L5.02359 103.163C5.08046 103.197 5.18814 103.238 5.33216 103.27C5.46087 103.299 5.59758 103.315 5.71662 103.318C5.72404 103.316 5.73388 103.313 5.74646 103.308C5.79178 103.294 5.85689 103.27 5.94312 103.237C6.11472 103.17 6.35461 103.07 6.65686 102.94C7.2605 102.68 8.10176 102.303 9.11981 101.837C11.1553 100.905 13.8911 99.6194 16.8325 98.2051L16.8327 98.205C21.7004 95.8685 24.3991 94.5833 25.9495 93.906C26.722 93.5685 27.2267 93.3741 27.5794 93.2774C27.9357 93.1798 28.1804 93.1692 28.4098 93.2443C28.8373 93.3749 35.2046 95.6888 42.6157 98.3967C46.3371 99.75 49.7761 100.985 52.3176 101.882C53.5886 102.33 54.6341 102.694 55.3778 102.945C55.75 103.07 56.0446 103.167 56.2535 103.233C56.3584 103.265 56.4387 103.289 56.4952 103.304C56.5051 103.307 56.5139 103.309 56.5215 103.311C56.5291 103.309 56.5376 103.307 56.5472 103.304C56.6039 103.289 56.6849 103.264 56.7908 103.231C57.0017 103.164 57.3005 103.066 57.6785 102.938C58.434 102.682 59.4988 102.311 60.7954 101.854C63.3884 100.939 66.9044 99.6781 70.7183 98.294C74.5325 96.8996 78.0342 95.623 80.6056 94.6898C81.8913 94.2232 82.9447 93.8424 83.6884 93.5755C84.0602 93.4422 84.3551 93.3371 84.5631 93.2639C84.667 93.2274 84.7502 93.1986 84.8107 93.178C84.8526 93.1638 84.9021 93.1471 84.9374 93.1378C84.99 93.1234 85.0339 93.124 85.0529 93.1246C85.0797 93.1255 85.1031 93.1288 85.1199 93.1317C85.1535 93.1375 85.1872 93.1464 85.2168 93.155C85.2773 93.1727 85.3525 93.1989 85.4377 93.2309C85.6099 93.2956 85.8476 93.3929 86.1406 93.518C86.7279 93.7688 87.5527 94.1374 88.5534 94.5954C90.5555 95.5118 93.2698 96.7894 96.2139 98.2051C99.1555 99.6195 101.886 100.905 103.917 101.837C104.932 102.304 105.771 102.68 106.373 102.94C106.674 103.071 106.913 103.17 107.084 103.237C107.17 103.27 107.235 103.294 107.28 103.309C107.292 103.313 107.302 103.315 107.309 103.318C107.418 103.315 107.549 103.299 107.675 103.27C107.817 103.238 107.925 103.197 107.982 103.163L107.991 103.157L108 103.153C108.039 103.132 108.071 103.116 108.096 103.103C108.172 103.065 108.195 103.053 108.223 103.025C108.242 103.007 108.288 102.953 108.326 102.757C108.409 102.342 108.419 101.498 108.307 99.6751C108.097 96.2568 107.468 89.5483 106.214 76.1675L105.988 73.7595C104.696 60.079 104.025 52.9765 103.62 49.2395C103.417 47.3676 103.283 46.3531 103.173 45.7814C103.068 45.2372 102.995 45.16 102.963 45.1303ZM102.963 45.1303C102.961 45.1291 102.96 45.1274 102.957 45.1252C102.958 45.1263 102.96 45.1273 102.961 45.1284C102.961 45.129 102.962 45.1297 102.963 45.1303ZM56.5632 103.321C56.5632 103.321 56.5619 103.321 56.5597 103.32C56.5622 103.321 56.5633 103.321 56.5632 103.321ZM56.4828 103.321C56.4802 103.321 56.4788 103.322 56.4787 103.322C56.4786 103.322 56.4799 103.321 56.4828 103.321ZM107.327 103.322C107.327 103.322 107.326 103.322 107.324 103.322C107.326 103.322 107.328 103.322 107.327 103.322ZM7.79679 99.2379L7.78923 99.235L7.78181 99.2319C7.70967 99.1902 7.62387 99.0976 7.60267 99.0592C7.59297 99.0369 7.5807 98.9998 7.57698 98.9849C7.57089 98.9582 7.56899 98.9356 7.56829 98.9267C7.5666 98.9053 7.56645 98.8838 7.56651 98.8684C7.56666 98.8348 7.56825 98.7907 7.5707 98.7397C7.5757 98.6363 7.58522 98.4865 7.59876 98.2953C7.62591 97.9121 7.66988 97.3532 7.72824 96.6446C7.84501 95.2271 8.0198 93.2059 8.23402 90.7826C8.6625 85.9357 9.24894 79.4779 9.84497 73.0177C10.441 66.5574 11.0467 60.0944 11.5136 55.2373C11.7471 52.8089 11.9459 50.7813 12.0915 49.3561C12.1643 48.6437 12.2239 48.0806 12.268 47.6929C12.29 47.4995 12.3083 47.3475 12.3226 47.2419C12.3297 47.1897 12.3363 47.145 12.3423 47.111C12.3452 47.0948 12.349 47.075 12.3538 47.0558C12.356 47.0469 12.3603 47.0303 12.3673 47.0113C12.3711 47.0014 12.3809 46.979 12.3876 46.9657C12.3972 46.9488 12.4253 46.9106 12.4515 46.8814L12.4505 46.8804C12.4761 46.8549 12.5016 46.8377 12.5049 46.8354C12.5144 46.8289 12.5235 46.823 12.5308 46.8184C12.5458 46.8091 12.5636 46.7985 12.5824 46.7876C12.6207 46.7655 12.673 46.7362 12.7373 46.7008C12.8663 46.6297 13.05 46.5304 13.2799 46.4073C13.74 46.1609 14.3888 45.8172 15.1627 45.4094C16.7107 44.5935 18.7613 43.5198 20.8085 42.452C22.8557 41.3842 24.8999 40.322 26.435 39.5293C27.2024 39.133 27.8432 38.8037 28.2937 38.5747C28.5187 38.4603 28.6973 38.3704 28.8208 38.3094C28.8822 38.2792 28.9321 38.255 28.9679 38.2383C28.9851 38.2304 29.0033 38.2221 29.0194 38.2155C29.0216 38.2146 29.0246 38.2134 29.0282 38.212C29.0358 38.209 29.0462 38.2052 29.0577 38.2016C29.0645 38.1995 29.0852 38.1931 29.1121 38.189C29.1273 38.187 29.1668 38.185 29.1913 38.186C29.2346 38.1919 29.3499 38.2375 29.4133 38.2877C29.4545 38.3373 29.4959 38.4187 29.5039 38.4445C29.5073 38.4583 29.5116 38.4807 29.5129 38.4894C29.515 38.5048 29.5156 38.5173 29.5158 38.5216C29.5162 38.5322 29.5162 38.5416 29.5162 38.5462C29.5162 38.5572 29.5158 38.5698 29.5154 38.5821C29.5146 38.6078 29.5131 38.6439 29.511 38.6892C29.5067 38.7803 29.4998 38.9142 29.4903 39.0883C29.4714 39.4366 29.4423 39.9485 29.404 40.606C29.3274 41.9211 29.2139 43.8203 29.0717 46.1622C28.7871 50.8459 28.3872 57.3009 27.936 64.3967C27.4951 71.4929 27.0746 77.9639 26.7515 82.674C26.59 85.0289 26.4528 86.9443 26.3495 88.2779C26.2979 88.9444 26.2546 89.4671 26.2209 89.8271C26.2041 90.0067 26.1895 90.1486 26.1771 90.2485C26.171 90.2978 26.1649 90.3417 26.1587 90.3764C26.1558 90.393 26.1516 90.4144 26.1458 90.4359C26.1431 90.4462 26.138 90.4639 26.1299 90.484L26.1295 90.4851C26.125 90.4964 26.1025 90.5534 26.05 90.6059C26.0165 90.6394 25.9787 90.6634 25.9678 90.6705C25.9484 90.6831 25.9262 90.6964 25.9034 90.7096C25.8572 90.7362 25.7964 90.7695 25.7238 90.8081C25.578 90.8856 25.3741 90.9903 25.1219 91.1174C24.6168 91.3721 23.9111 91.7205 23.0726 92.1302C21.3952 92.9498 19.1826 94.0167 16.9736 95.0731C14.7647 96.1295 12.5585 97.1758 10.8939 97.9544C10.0618 98.3436 9.3639 98.6664 8.86832 98.8903C8.62093 99.002 8.42176 99.0901 8.2808 99.1496C8.21097 99.1791 8.15148 99.2033 8.10608 99.2201C8.08427 99.2281 8.05932 99.2369 8.03533 99.2437C8.02411 99.2469 8.00471 99.252 7.98175 99.2557C7.97036 99.2575 7.95092 99.2601 7.92699 99.2605C7.90877 99.2607 7.85721 99.2605 7.79679 99.2379ZM86.2599 39.3336L86.0955 39.6426L86.2581 39.3326L86.2592 39.3332C87.5114 39.9901 91.2627 41.958 94.563 43.6799C96.5945 44.7367 98.097 45.5496 99.0959 46.1278C99.5944 46.4163 99.9736 46.6499 100.232 46.8283C100.36 46.9168 100.468 46.9976 100.547 47.0693C100.586 47.1047 100.627 47.1454 100.661 47.1902C100.688 47.2248 100.748 47.3083 100.758 47.4244L100.76 47.4402V47.4561C100.76 47.4524 100.76 47.4584 100.762 47.4781C100.764 47.4992 100.766 47.536 100.771 47.5933C100.779 47.6911 100.792 47.8317 100.808 48.013C100.84 48.3756 100.888 48.8994 100.949 49.5671C101.072 50.9024 101.249 52.812 101.468 55.1549C101.907 59.8408 102.512 66.2595 103.178 73.2833L103.178 73.2838C103.835 80.3081 104.419 86.6968 104.832 91.3348C105.038 93.6537 105.202 95.5355 105.31 96.8404C105.364 97.4927 105.404 98.0019 105.429 98.3499C105.441 98.5235 105.45 98.6591 105.455 98.753C105.457 98.7992 105.459 98.8394 105.459 98.8704C105.459 98.8847 105.459 98.9044 105.457 98.9243C105.457 98.9328 105.455 98.9529 105.45 98.9767C105.448 98.988 105.443 99.0122 105.431 99.041L105.431 99.0417C105.424 99.059 105.39 99.1414 105.3 99.2014L105.267 99.2237L105.229 99.2379C105.169 99.2606 105.117 99.2607 105.099 99.2605C105.075 99.2601 105.055 99.2575 105.044 99.2557C105.021 99.252 105.002 99.2468 104.99 99.2436C104.966 99.2368 104.941 99.228 104.92 99.2199C104.874 99.2031 104.815 99.1789 104.745 99.1493C104.604 99.0896 104.404 99.0014 104.157 98.8894C103.66 98.665 102.962 98.3415 102.129 97.9515C100.462 97.1713 98.2535 96.123 96.042 95.0654C93.8305 94.0077 91.6155 92.9403 89.9363 92.1217C89.0969 91.7125 88.3905 91.365 87.8853 91.112C87.6329 90.9856 87.4291 90.882 87.2836 90.8057C87.2111 90.7677 87.1508 90.7353 87.1054 90.7097C87.0829 90.697 87.0614 90.6845 87.0428 90.6729L87.0418 90.6722C87.0302 90.665 86.9962 90.6439 86.9655 90.6156L86.9653 90.6158L86.9554 90.6059C86.8953 90.5458 86.8735 90.4781 86.8728 90.476C86.8659 90.4571 86.8617 90.4411 86.8597 90.4327C86.8553 90.4147 86.8522 90.3974 86.8502 90.3853C86.846 90.3594 86.8419 90.3274 86.8378 90.2926C86.8295 90.2214 86.8195 90.1207 86.808 89.9935C86.7848 89.7382 86.7544 89.3666 86.7177 88.8911C86.6442 87.9398 86.5447 86.5672 86.4253 84.866C86.1866 81.4632 85.868 76.7427 85.5181 71.4399C84.8182 60.8344 83.9927 47.8984 83.4287 38.5152L83.4281 38.5047V38.4941C83.4281 38.3836 83.4802 38.2776 83.572 38.2103C83.6444 38.1572 83.7163 38.1468 83.7445 38.1438C83.8034 38.1376 83.851 38.148 83.8618 38.1503C83.8961 38.1574 83.9278 38.1687 83.9462 38.1754C83.9891 38.1912 84.044 38.2146 84.1046 38.2418C84.2284 38.2973 84.4034 38.3809 84.615 38.4854C85.0392 38.6949 85.6218 38.994 86.2599 39.3336Z" fill="black" stroke="white" stroke-width="0.7"/>
</svg>
