<svg width="26" height="26" viewBox="0 0 26 26" fill="none" xmlns="http://www.w3.org/2000/svg">
<path d="M1 12.9989H17.8M17.8 12.9989L13.6 9.39893M17.8 12.9989L13.6 16.5989" stroke="black" stroke-width="1.875" stroke-linecap="round" stroke-linejoin="round"/>
<path d="M9.39844 7C9.41297 4.38996 9.52871 2.97647 10.4508 2.05442C11.5052 1 13.2023 1 16.5963 1H17.7963C21.1904 1 22.8876 1 23.9419 2.05442C24.9963 3.10883 24.9963 4.80588 24.9963 8.2V17.8C24.9963 21.1941 24.9963 22.8911 23.9419 23.9456C22.8876 25 21.1904 25 17.7963 25H16.5963C13.2023 25 11.5052 25 10.4508 23.9456C9.52871 23.0235 9.41297 21.61 9.39844 19" stroke="black" stroke-width="1.875" stroke-linecap="round"/>
</svg>
