<svg width="76" height="76" viewBox="0 0 76 76" fill="none" xmlns="http://www.w3.org/2000/svg">
<rect width="76" height="76" rx="7" fill="#3F9755"/>
<path d="M43.1252 21L43.4919 28.774H42.5629C42.3836 27.405 42.1392 26.4271 41.8295 25.8404C41.3243 24.8951 40.6479 24.2025 39.8005 23.7624C38.9693 23.3061 37.8692 23.0779 36.5002 23.0779H31.8309V48.4044C31.8309 50.4416 32.051 51.7128 32.491 52.2181C33.1103 52.9025 34.0637 53.2448 35.3512 53.2448H36.5002V54.1493H22.4435V53.2448H23.617C25.0185 53.2448 26.0127 52.8211 26.5994 51.9736C26.958 51.4521 27.1372 50.2623 27.1372 48.4044V23.0779H23.1525C21.6042 23.0779 20.5041 23.192 19.8522 23.4202C19.0047 23.7298 18.2795 24.3247 17.6765 25.2048C17.0735 26.0849 16.7149 27.2746 16.6008 28.774H15.6719L16.063 21H43.1252Z" fill="black"/>
<path d="M60.2132 53.2448V54.1493H46.0099V53.2448H47.1833C48.5523 53.2448 49.5464 52.8455 50.1657 52.0469C50.5569 51.5254 50.7525 50.2705 50.7525 48.2822V26.8671C50.7525 25.1885 50.6465 24.0802 50.4347 23.5424C50.2717 23.135 49.9376 22.7846 49.4324 22.4912C48.7153 22.1001 47.9656 21.9045 47.1833 21.9045H46.0099V21H60.2132V21.9045H59.0153C57.6626 21.9045 56.6766 22.3038 56.0573 23.1024C55.6499 23.6239 55.4462 24.8788 55.4462 26.8671V48.2822C55.4462 49.9608 55.5521 51.0691 55.764 51.6069C55.9269 52.0143 56.2692 52.3647 56.7907 52.6581C57.4915 53.0492 58.2331 53.2448 59.0153 53.2448H60.2132Z" fill="black"/>
<rect width="60" height="8.26229" transform="translate(8 33.5901)" fill="white"/>
<path d="M16.7243 38.7212V35.866H15.6142V35.5234H18.1953V35.866H17.0898V38.7212H16.7243ZM20.8961 38.7212L20.1469 37.6933C20.0967 37.6979 20.0419 37.7025 19.9916 37.7025H19.0323V38.7212H18.6668V35.5234H19.9916C20.6677 35.5234 21.2068 35.9802 21.2068 36.6106C21.2068 37.0492 20.9098 37.4238 20.5033 37.5974L21.3301 38.7212H20.8961ZM20.8413 36.6106C20.8413 36.1812 20.4804 35.866 19.9916 35.866H19.0323V37.3598H19.9916C20.4621 37.3598 20.8413 37.0309 20.8413 36.6106ZM21.258 38.7212L22.7335 35.5234H23.131L24.602 38.7212H24.2137L23.8116 37.8486H22.0574L21.6554 38.7212H21.258ZM22.2127 37.5152H23.6563L22.9345 35.9528L22.2127 37.5152ZM25.2602 36.1812V38.7212H24.8947V35.5234H25.1825L27.2702 38.0451V35.5234H27.6357V38.7212H27.3479L25.2602 36.1812ZM30.7646 37.9035C30.7646 38.4014 30.2758 38.7897 29.5449 38.7897C28.7957 38.7897 28.2247 38.4014 28.1698 37.8075H28.549C28.6221 38.2141 29.0104 38.4699 29.5312 38.4699C30.0337 38.4699 30.3992 38.2232 30.3992 37.8898C30.3992 36.8573 28.2247 37.6705 28.2247 36.3137C28.2247 35.7975 28.7546 35.4549 29.4581 35.4549C30.1479 35.4549 30.6641 35.8249 30.7327 36.3639H30.3581C30.285 36.0168 29.9149 35.7701 29.4581 35.7701C28.9602 35.7701 28.5901 35.9985 28.5901 36.3274C28.5901 37.2502 30.7646 36.4599 30.7646 37.9035ZM32.8174 35.5234V38.7212H32.4519V35.5234H32.8174ZM33.8926 36.1812V38.7212H33.5272V35.5234H33.815L35.9027 38.0451V35.5234H36.2682V38.7212H35.9804L33.8926 36.1812ZM37.3323 36.1812V38.7212H36.9668V35.5234H37.2546L39.3423 38.0451V35.5234H39.7078V38.7212H39.42L37.3323 36.1812ZM40.2511 37.1269C40.2511 36.1629 40.9181 35.4549 41.8134 35.4549C42.7271 35.4549 43.3849 36.1401 43.3849 37.1269C43.3849 38.1045 42.7271 38.7897 41.8134 38.7897C40.9226 38.7897 40.2511 38.0771 40.2511 37.1269ZM40.6165 37.1223C40.6165 37.8806 41.1236 38.4425 41.8134 38.4425C42.5261 38.4425 43.0195 37.8989 43.0195 37.1223C43.0195 36.3411 42.5307 35.802 41.8134 35.802C41.1191 35.802 40.6165 36.3594 40.6165 37.1223ZM43.4214 35.5234H43.8188L45.098 38.2918L46.3771 35.5234H46.7654L45.2944 38.7212H44.8969L43.4214 35.5234ZM46.4149 38.7212L47.8904 35.5234H48.2879L49.7589 38.7212H49.3706L48.9686 37.8486H47.2143L46.8123 38.7212H46.4149ZM47.3696 37.5152H48.8132L48.0914 35.9528L47.3696 37.5152ZM50.6297 38.7212V35.866H49.5196V35.5234H52.1007V35.866H50.9952V38.7212H50.6297ZM52.9331 35.5234V38.7212H52.5676V35.5234H52.9331ZM53.4876 37.1269C53.4876 36.1629 54.1545 35.4549 55.0499 35.4549C55.9636 35.4549 56.6214 36.1401 56.6214 37.1269C56.6214 38.1045 55.9636 38.7897 55.0499 38.7897C54.1591 38.7897 53.4876 38.0771 53.4876 37.1269ZM53.853 37.1223C53.853 37.8806 54.3601 38.4425 55.0499 38.4425C55.7626 38.4425 56.256 37.8989 56.256 37.1223C56.256 36.3411 55.7672 35.802 55.0499 35.802C54.3556 35.802 53.853 36.3594 53.853 37.1223ZM57.5149 36.1812V38.7212H57.1494V35.5234H57.4372L59.5249 38.0451V35.5234H59.8904V38.7212H59.6026L57.5149 36.1812Z" fill="black"/>
</svg>
