<svg width="16" height="30" viewBox="0 0 16 30" fill="none" xmlns="http://www.w3.org/2000/svg">
<path d="M1.32031 25.04C1.82698 25.28 2.30698 25.48 2.76031 25.64C3.24031 25.8267 3.69365 25.96 4.12031 26.04C4.57365 26.1467 5.02698 26.2267 5.48031 26.28C5.96031 26.3334 6.46698 26.36 7.00031 26.36C7.69365 26.36 8.36031 26.2534 9.00031 26.04C9.64031 25.8267 10.2003 25.5067 10.6803 25.08C11.1603 24.6534 11.547 24.1067 11.8403 23.44C12.1336 22.8 12.2803 22.04 12.2803 21.16C12.2803 19.4 11.5603 18.04 10.1203 17.08C8.70698 16.12 6.84031 15.6267 4.52031 15.6V12.8C6.78698 12.8 8.58698 12.32 9.92031 11.36C11.2803 10.4 11.9603 9.00003 11.9603 7.16003C11.9603 6.65336 11.8936 6.18669 11.7603 5.76003C11.6536 5.33336 11.4403 4.96003 11.1203 4.64003C10.827 4.32003 10.427 4.08003 9.92031 3.92003C9.41365 3.73336 8.77365 3.64003 8.00031 3.64003C7.36031 3.64003 6.74698 3.68003 6.16031 3.76003C5.60031 3.84003 5.09365 3.92003 4.64031 4.00003C4.13365 4.10669 3.64031 4.21336 3.16031 4.32003L2.36031 1.72003C2.86698 1.56003 3.44031 1.41336 4.08031 1.28003C4.61365 1.17336 5.25365 1.08003 6.00031 1.00003C6.74698 0.89336 7.56031 0.840027 8.44031 0.840027C10.5203 0.840027 12.187 1.34669 13.4403 2.36003C14.7203 3.34669 15.3603 4.93336 15.3603 7.12003C15.3603 8.18669 15.187 9.12003 14.8403 9.92003C14.4936 10.6934 14.067 11.36 13.5603 11.92C13.0803 12.48 12.547 12.9334 11.9603 13.28C11.4003 13.6 10.8803 13.84 10.4003 14V14.12C11.067 14.36 11.7203 14.68 12.3603 15.08C13.0003 15.48 13.5603 15.9734 14.0403 16.56C14.547 17.1467 14.947 17.8267 15.2403 18.6C15.5336 19.3467 15.6803 20.2 15.6803 21.16C15.6803 22.7334 15.387 24.0267 14.8003 25.04C14.2403 26.08 13.5336 26.9067 12.6803 27.52C11.827 28.1334 10.8803 28.56 9.84031 28.8C8.82698 29.04 7.88031 29.16 7.00031 29.16C5.98698 29.16 5.06698 29.08 4.24031 28.92C3.44031 28.7867 2.74698 28.6267 2.16031 28.44C1.46698 28.2267 0.853646 27.9867 0.320312 27.72L1.32031 25.04Z" fill="black"/>
</svg>
