<svg width="87" height="87" viewBox="0 0 87 87" fill="none" xmlns="http://www.w3.org/2000/svg">
<path opacity="0.942" fill-rule="evenodd" clip-rule="evenodd" d="M21.7788 3.82718C29.6116 3.79682 37.4441 3.82718 45.2765 3.91826C45.5587 4.13939 45.7711 4.41262 45.914 4.73795C46.0051 7.83394 46.0355 10.9305 46.0051 14.0277C48.556 13.9974 51.1061 14.0278 53.6555 14.1188C54.0503 14.2706 54.3235 14.5438 54.4752 14.9385C54.5359 21.1317 54.5967 27.3249 54.6574 33.5181C54.7789 33.6396 54.9002 33.7609 55.0217 33.8824C56.8159 31.757 59.0928 30.9373 61.8524 31.4233C65.5457 32.5844 67.2762 35.1041 67.0438 38.9827C66.4295 41.8435 64.7295 43.7257 61.9435 44.6294C61.8524 47.7861 61.822 50.9433 61.8524 54.1013C64.3426 54.0709 66.8319 54.1013 69.3207 54.1924C69.9819 54.748 70.1945 55.4462 69.9582 56.2872C69.66 56.7079 69.2653 56.9812 68.7742 57.1068C66.4678 57.1979 64.1605 57.2283 61.8524 57.1979C61.8524 64.6055 61.8524 72.0129 61.8524 79.4205C68.2077 78.8714 73.0348 75.8963 76.3335 70.4951C77.4494 68.1952 78.0565 65.7664 78.1551 63.209C79.0578 61.9976 79.9686 61.9976 80.8874 63.209C81.0431 69.5461 78.584 74.6159 73.5102 78.4187C66.7316 82.9257 59.5061 83.7756 51.834 80.9688C44.4761 77.7976 40.4081 72.2117 39.6298 64.2108C39.9159 62.3953 40.8571 61.9399 42.4531 62.8447C43.1298 71.3546 47.5926 76.7281 55.8414 78.9652C56.8053 79.1765 57.7767 79.3282 58.7558 79.4205C58.7558 72.0129 58.7558 64.6055 58.7558 57.1979C56.5084 57.2283 54.2619 57.1979 52.0162 57.1068C50.8387 56.787 50.4442 56.028 50.8322 54.8299C51.0447 54.6174 51.2571 54.405 51.4697 54.1924C53.8976 54.1013 56.3264 54.0709 58.7558 54.1013C58.7558 50.8832 58.7558 47.6653 58.7558 44.4472C55.0383 43.2997 53.3989 40.78 53.8377 36.8879C47.0833 32.3419 40.3134 27.8183 33.5277 23.3175C24.2459 29.4905 14.9863 35.6837 5.74938 41.8971C6.58307 43.7465 7.46347 45.568 8.39059 47.3617C16.6944 42.8454 25.0734 38.4737 33.5277 34.2467C39.176 37.0557 44.7924 39.9399 50.3768 42.8989C50.8806 43.1662 51.336 43.5 51.7429 43.9008C52.1466 45.5602 51.509 46.3192 49.8303 46.1777C44.9282 43.6204 40.0404 41.0399 35.167 38.4362C35.1064 45.9045 35.0455 53.3727 34.9849 60.841C34.522 61.6732 33.8237 61.9465 32.8901 61.6607C32.4954 61.5089 32.2222 61.2357 32.0704 60.841C32.0098 53.3727 31.9489 45.9045 31.8883 38.4362C24.4069 42.3437 16.9691 46.3207 9.57458 50.3672C14.1313 60.0623 18.5636 69.8074 22.8717 79.6027C30.5223 79.5723 38.1727 79.6027 45.823 79.6938C46.737 80.3717 46.8887 81.1914 46.2784 82.1528C46.1417 82.2669 45.9898 82.3579 45.823 82.4261C35.3188 82.5476 24.8148 82.5476 14.3106 82.4261C13.9767 82.335 13.7641 82.1224 13.673 81.7885C13.5515 81.3027 13.5515 80.8171 13.673 80.3313C13.7641 79.9974 13.9767 79.7849 14.3106 79.6938C16.0714 79.6331 17.8321 79.5723 19.593 79.5116C13.8814 67.1741 8.20423 54.8181 2.5617 42.4436C2.17 41.5984 2.20037 40.7787 2.65278 39.9845C5.94809 37.8968 9.19649 35.7414 12.398 33.5181C12.4004 27.1879 12.5218 20.8734 12.7623 14.5742C12.9266 14.3554 13.1392 14.2035 13.3998 14.1188C15.9492 14.0278 18.4993 13.9974 21.0502 14.0277C21.0198 10.9305 21.0502 7.83394 21.1413 4.73795C21.3229 4.40586 21.5355 4.10229 21.7788 3.82718ZM24.1468 6.74163C30.4007 6.74163 36.6547 6.74163 42.9085 6.74163C42.9085 9.17032 42.9085 11.599 42.9085 14.0277C36.6547 14.0277 30.4007 14.0277 24.1468 14.0277C24.1468 11.599 24.1468 9.17032 24.1468 6.74163ZM15.5856 17.1243C27.547 17.1243 39.5083 17.1243 51.4697 17.1243C51.5304 21.8619 51.4697 26.5979 51.2876 31.3322C45.7375 27.6947 40.2121 24.0212 34.7117 20.312C33.9224 19.7049 33.1329 19.7049 32.3437 20.312C26.8432 24.0212 21.3178 27.6947 15.7678 31.3322C15.5856 26.5979 15.525 21.8619 15.5856 17.1243ZM59.4844 34.4288C63.1322 34.4429 64.4984 36.2035 63.5829 39.7113C62.1522 41.6614 60.3611 42.0559 58.2094 40.8953C56.2809 38.9557 56.2809 37.0127 58.2094 35.0664C58.6511 34.8454 59.0762 34.633 59.4844 34.4288Z" fill="white"/>
</svg>
