<svg width="90" height="90" viewBox="0 0 90 90" fill="none" xmlns="http://www.w3.org/2000/svg">
<path opacity="0.964" fill-rule="evenodd" clip-rule="evenodd" d="M18.0859 0C18.6102 0 19.1345 0 19.6588 0C20.2706 0.352559 20.6492 0.879903 20.7948 1.58203C20.8239 8.55543 20.9113 15.5281 21.0569 22.5C22.2453 18.5917 23.3813 14.6659 24.4649 10.7227C24.6192 10.2652 24.8813 9.88434 25.2513 9.58008C27.3934 8.76233 29.6072 8.23498 31.8925 7.99805C40.6308 7.17773 49.3692 7.17773 58.1075 7.99805C60.3928 8.23498 62.6065 8.76233 64.7486 9.58008C65.1186 9.88434 65.3808 10.2652 65.5351 10.7227C66.6187 14.6659 67.7546 18.5917 68.9431 22.5C69.0886 15.5281 69.176 8.55543 69.2052 1.58203C69.3508 0.879903 69.7293 0.352559 70.3412 0C70.8655 0 71.3898 0 71.9141 0C72.3173 0.259698 72.6376 0.61126 72.8753 1.05469C72.9627 8.20288 72.9919 15.3513 72.9627 22.5C73.8385 22.4708 74.7123 22.5002 75.5842 22.5879C76.2317 22.8865 76.6104 23.3847 76.7202 24.082C76.7784 31.8164 76.8368 39.5508 76.895 47.2852C78.4584 47.7151 80.0021 48.2131 81.5263 48.7793C82.8223 49.6573 83.667 50.8584 84.0604 52.3828C84.0896 56.3099 84.177 60.2357 84.3226 64.1602C85.3046 63.5335 86.295 63.5043 87.2936 64.0723C87.5629 64.3498 87.7669 64.6722 87.9053 65.0391C88.075 69.3274 88.0166 73.6049 87.7305 77.8711C87.3918 78.3292 86.9549 78.6514 86.4198 78.8379C84.4522 79.4779 82.5006 80.1519 80.5651 80.8594C80.5069 82.4414 80.4485 84.0234 80.3903 85.6055C79.7631 87.7887 78.3939 89.2535 76.2833 90C74.0695 90 71.8559 90 69.6421 90C66.3577 88.6704 64.9596 86.2094 65.4477 82.6172C51.8159 82.6172 38.1841 82.6172 24.5522 82.6172C25.0404 86.2094 23.6422 88.6704 20.3578 90C18.1441 90 15.9304 90 13.7167 90C11.606 89.2535 10.237 87.7887 9.60967 85.6055C9.55142 84.0234 9.49315 82.4414 9.4349 80.8594C7.49929 80.1519 5.54772 79.4779 3.58021 78.8379C3.04514 78.6514 2.60822 78.3292 2.26945 77.8711C1.98333 73.6049 1.92508 69.3274 2.09469 65.0391C2.53426 63.9828 3.32071 63.5433 4.45404 63.7207C4.86847 63.8499 5.27625 63.9963 5.67741 64.1602C5.82301 60.2357 5.91039 56.3099 5.93956 52.3828C6.33298 50.8584 7.17768 49.6573 8.47368 48.7793C9.99779 48.2131 11.5416 47.7151 13.105 47.2852C13.1633 39.5508 13.2215 31.8164 13.2798 24.082C13.3896 23.3847 13.7682 22.8865 14.4158 22.5879C15.2877 22.5002 16.1615 22.4708 17.0373 22.5C17.0081 15.3513 17.0373 8.20288 17.1246 1.05469C17.3623 0.61126 17.6827 0.259698 18.0859 0ZM36.7859 11.4258C38.8831 11.4258 40.9803 11.4258 43.0775 11.4258C43.0775 15.1172 43.0775 18.8086 43.0775 22.5C40.9676 22.459 38.8704 22.6055 36.7859 22.9395C32.6663 23.5983 28.5885 24.4478 24.5522 25.4883C25.561 21.2419 26.697 17.0231 27.9602 12.832C29.1217 12.4466 30.3159 12.1829 31.5429 12.041C33.3186 11.854 35.0662 11.6489 36.7859 11.4258ZM46.9224 11.4258C51.988 11.2578 56.9981 11.6972 61.9524 12.7441C63.2782 16.9494 64.4433 21.1975 65.4477 25.4883C61.4115 24.4478 57.3336 23.5983 53.214 22.9395C51.1296 22.6055 49.0324 22.459 46.9224 22.5C46.9224 18.8086 46.9224 15.1172 46.9224 11.4258ZM17.0373 26.3672C18.2606 26.3672 19.484 26.3672 20.7074 26.3672C20.7656 32.6964 20.7074 39.0245 20.5326 45.3516C19.3788 45.7003 18.2136 45.9932 17.0373 46.2305C17.0373 39.6093 17.0373 32.9883 17.0373 26.3672ZM40.8056 26.3672C46.702 26.0404 52.5275 26.5384 58.2823 27.8613C60.6671 28.4465 63.0557 29.003 65.4477 29.5312C65.4769 31.9929 65.4477 34.4538 65.3603 36.9141C64.7389 36.1717 64.0106 35.5565 63.1757 35.0684C59.1565 33.2325 55.0202 31.709 50.7673 30.498C45.0711 29.2732 39.5369 29.8005 34.1644 32.0801C31.678 32.9788 29.2313 33.975 26.8242 35.0684C25.9894 35.5565 25.2611 36.1717 24.6396 36.9141C24.5522 34.4538 24.5231 31.9929 24.5522 29.5312C29.9228 28.1109 35.3406 27.0562 40.8056 26.3672ZM69.2926 26.3672C70.516 26.3672 71.7393 26.3672 72.9627 26.3672C72.9627 32.9883 72.9627 39.6093 72.9627 46.2305C71.7863 45.9932 70.6212 45.7003 69.4674 45.3516C69.2926 39.0245 69.2344 32.6964 69.2926 26.3672ZM43.2523 33.75C45.741 33.6343 48.1877 33.898 50.5925 34.541C54.3574 35.702 58.0275 37.1083 61.6028 38.7598C62.0583 39.1004 62.3786 39.5399 62.5641 40.0781C63.5545 42.5976 64.5447 45.1172 65.5351 47.6367C65.7312 48.0101 65.9933 48.3323 66.3216 48.6035C70.7683 49.7802 75.1959 51.0107 79.6038 52.2949C79.8746 52.5083 80.0783 52.772 80.2155 53.0859C80.3029 57.2456 80.3321 61.4058 80.3029 65.5664C78.3675 66.1273 76.4451 66.7426 74.5356 67.4121C69.4092 67.4706 64.2825 67.5294 59.1561 67.5879C58.7849 67.7851 58.4646 68.0488 58.1949 68.3789C58.1367 60.9376 58.0783 53.496 58.0201 46.0547C57.6575 45.3377 57.1624 44.7224 56.5346 44.209C50.1399 40.7127 43.4987 40.1854 36.6112 42.627C35.5138 43.0617 34.4652 43.589 33.4654 44.209C32.8376 44.7224 32.3425 45.3377 31.9798 46.0547C31.9216 53.4375 31.8633 60.8203 31.8051 68.2031C31.4847 67.998 31.1642 67.793 30.8439 67.5879C25.7174 67.5294 20.5908 67.4706 15.4644 67.4121C13.5548 66.7426 11.6324 66.1273 9.69705 65.5664C9.66793 61.4058 9.69705 57.2456 9.78443 53.0859C9.96721 52.8064 10.1711 52.5428 10.3961 52.2949C14.8061 51.0101 19.2336 49.7797 23.6784 48.6035C24.0066 48.3323 24.2688 48.0101 24.4649 47.6367C25.4553 45.1172 26.4455 42.5976 27.4359 40.0781C27.6213 39.5399 27.9417 39.1004 28.3971 38.7598C33.1688 36.4667 38.1205 34.7968 43.2523 33.75ZM43.2523 45C47.1494 44.7347 50.7904 45.5551 54.1752 47.4609C54.2621 47.867 54.2911 48.2771 54.2626 48.6914C48.0876 48.6914 41.9124 48.6914 35.7373 48.6914C35.5404 47.569 36.0065 46.8951 37.1355 46.6699C39.1456 45.916 41.1846 45.3593 43.2523 45ZM35.7373 52.5586C41.9124 52.5586 48.0876 52.5586 54.2626 52.5586C54.2626 53.7891 54.2626 55.0195 54.2626 56.25C48.0876 56.25 41.9124 56.25 35.7373 56.25C35.7373 55.0195 35.7373 53.7891 35.7373 52.5586ZM17.0373 56.25C19.484 56.25 21.9307 56.25 24.3775 56.25C24.3775 57.4805 24.3775 58.7109 24.3775 59.9414C21.9307 59.9414 19.484 59.9414 17.0373 59.9414C17.0373 58.7109 17.0373 57.4805 17.0373 56.25ZM65.6225 56.25C68.0692 56.25 70.516 56.25 72.9627 56.25C72.9627 57.4805 72.9627 58.7109 72.9627 59.9414C70.516 59.9414 68.0692 59.9414 65.6225 59.9414C65.6225 58.7109 65.6225 57.4805 65.6225 56.25ZM35.7373 60.1172C41.9124 60.1172 48.0876 60.1172 54.2626 60.1172C54.2626 61.2891 54.2626 62.4609 54.2626 63.6328C48.0876 63.6328 41.9124 63.6328 35.7373 63.6328C35.7373 62.4609 35.7373 61.2891 35.7373 60.1172ZM35.7373 67.5C41.9124 67.5 48.0876 67.5 54.2626 67.5C54.2626 68.7305 54.2626 69.9609 54.2626 71.1914C48.0876 71.1914 41.9124 71.1914 35.7373 71.1914C35.7373 69.9609 35.7373 68.7305 35.7373 67.5ZM5.85218 68.3789C8.81469 69.3624 11.7857 70.3292 14.7653 71.2793C19.6006 71.3378 24.4357 71.3965 29.271 71.4551C30.448 72.7567 31.7296 73.9287 33.1158 74.9707C41.0385 75.088 48.9614 75.088 56.8841 74.9707C58.2704 73.9287 59.552 72.7567 60.729 71.4551C65.5643 71.3965 70.3994 71.3378 75.2347 71.2793C78.1648 70.3652 81.0777 69.3984 83.973 68.3789C84.1768 70.7205 84.206 73.0642 84.0604 75.4102C80.9013 76.5279 77.7265 77.6118 74.5356 78.6621C54.8451 78.7794 35.1548 78.7794 15.4644 78.6621C12.2736 77.6118 9.09861 76.5279 5.93956 75.4102C5.85219 73.0672 5.82306 70.7233 5.85218 68.3789ZM13.3672 82.0898C13.8114 82.2874 14.2774 82.434 14.7653 82.5293C16.7451 82.6172 18.7259 82.6465 20.7074 82.6172C20.7362 83.2644 20.7072 83.9088 20.62 84.5508C20.5141 85.0866 20.2519 85.526 19.8335 85.8691C18.1033 86.153 16.3556 86.2117 14.5905 86.0449C13.9499 85.7517 13.5712 85.2537 13.4545 84.5508C13.3673 83.7325 13.3382 82.9123 13.3672 82.0898ZM76.458 82.0898C76.7363 83.2103 76.6489 84.3237 76.1959 85.4297C75.9837 85.702 75.7216 85.9069 75.4094 86.0449C73.6443 86.2117 71.8966 86.153 70.1664 85.8691C69.748 85.526 69.4859 85.0866 69.38 84.5508C69.2928 83.9088 69.2638 83.2644 69.2926 82.6172C71.2741 82.6465 73.2549 82.6172 75.2347 82.5293C75.6898 82.4607 76.0977 82.3141 76.458 82.0898Z" fill="black"/>
</svg>
