<svg width="32" height="29" viewBox="0 0 32 29" fill="none" xmlns="http://www.w3.org/2000/svg">
<path d="M12.2821 0.122543C12.0097 0.340395 11.9825 0.483362 11.9825 1.89941V3.2678H10.6209H9.25934L9.04148 3.46523L8.81682 3.66266L8.7964 6.32455L8.77598 8.97964L7.03996 9.00006L5.29713 9.02048L5.0997 9.24514L4.90227 9.463V10.9607V12.4585H4.1534C3.42496 12.4585 3.40453 12.4653 3.18668 12.6559L2.96202 12.8533L2.9416 20.2127L2.92798 27.572H1.76383C0.851567 27.572 0.552019 27.5925 0.375013 27.6742C-0.0334615 27.8716 -0.128772 28.4026 0.1912 28.7226L0.375013 28.9132L2.75097 28.954C5.81453 29.0153 20.2405 29.0153 26.6536 28.954L31.6233 28.9132L31.8071 28.7226C32.0114 28.5183 32.0522 28.246 31.9229 27.9601C31.7663 27.6129 31.7595 27.6061 28.7912 27.572L26.0272 27.538L27.0416 25.9381C30.0235 21.2203 31.14 19.069 31.3782 17.5304C31.5008 16.7066 31.3374 15.6037 30.9357 14.5689C30.1324 12.5334 28.1785 10.9267 26.0272 10.5523L25.5371 10.4638L25.5166 7.03938L25.4962 3.615L25.3396 3.45842C25.1899 3.30865 25.1286 3.30184 23.7738 3.2678L22.3646 3.23376L22.3305 1.78367L22.2965 0.32678L22.1059 0.163389L21.9152 0H17.1701C12.779 0 12.4114 0.0136166 12.2821 0.122543ZM20.9689 2.31469V3.2678L17.1769 3.25418L13.3781 3.23376L13.3577 2.29427L13.3373 1.36158H17.1565H20.9689V2.31469ZM24.1687 7.54997V10.4638L23.7942 10.5114C23.3177 10.5659 22.4054 10.8518 21.888 11.1105C20.5264 11.7981 19.478 12.8738 18.8245 14.2422C18.3887 15.1612 18.2185 15.9101 18.2185 16.9177C18.2185 17.6665 18.239 17.7891 18.45 18.4154C18.9198 19.8042 20.152 22.0508 22.5484 25.8837C23.0998 26.7755 23.556 27.5176 23.556 27.538C23.556 27.5584 22.6369 27.572 21.5136 27.572H19.4712V25.0803V22.5886L19.2738 22.3912L19.0763 22.1938H17.1974H15.3184L15.1005 22.3912L14.8759 22.5886L14.8554 25.0803L14.835 27.572H12.5271H10.2124V19.7225C10.2124 15.4131 10.192 10.2459 10.1648 8.25119L10.1239 4.62938H17.1429H24.1687V7.54997ZM8.78278 11.4033V12.4585H7.52332H6.26386V11.4033V10.348H7.52332H8.78278V11.4033ZM26.1974 11.9819C28.2806 12.5674 29.7443 14.2966 30.0235 16.482C30.2073 17.9933 29.4584 19.5659 25.7141 25.482C25.0197 26.5781 24.8018 26.8708 24.7405 26.8096C24.6248 26.6802 22.3033 22.9222 21.6157 21.7513C20.8328 20.4237 20.0022 18.7626 19.7776 18.075C19.5393 17.3806 19.4984 16.9449 19.6074 16.2913C19.9614 14.0379 21.6293 12.3087 23.8623 11.873C24.4954 11.7505 25.5575 11.7981 26.1974 11.9819ZM8.78278 20.6961V27.572H6.53617H4.28956V20.6961V13.8201H6.53617H8.78278V20.6961ZM18.1096 25.5637V27.572H17.1565H16.2034V25.5637V23.5554H17.1565H18.1096V25.5637Z" fill="white"/>
<path d="M12.6471 7.99941C12.545 8.06068 12.4292 8.1628 12.3884 8.23768C12.3475 8.31257 12.3203 9.0274 12.3203 10.0418V11.7233L12.5177 11.9208C12.7901 12.1931 13.1236 12.1931 13.4232 11.9208L13.6479 11.7233L13.6683 10.4911L13.6887 9.25887H14.7099H15.7243V10.4911V11.7233L15.9217 11.9208C16.194 12.1931 16.5276 12.1931 16.8272 11.9208L17.0518 11.7233V10.0145V8.30576L16.8612 8.12195L16.6774 7.93133L14.7507 7.91771C13.1509 7.90409 12.7969 7.91771 12.6471 7.99941Z" fill="white"/>
<path d="M12.4973 13.8268L12.3203 14.0378V15.6921V17.3465L12.4973 17.5575C12.6403 17.7277 12.722 17.7686 12.9466 17.7686C13.5798 17.7686 13.6819 17.5371 13.6819 16.0666V14.9773H14.7031H15.7243V16.1619C15.7243 17.3397 15.7243 17.3533 15.9013 17.5575C16.0442 17.7277 16.1259 17.7686 16.3506 17.7686C17.0178 17.7686 17.0859 17.5779 17.0859 15.6921C17.0859 14.1331 17.0382 13.8404 16.7591 13.6906C16.6638 13.643 15.9285 13.6157 14.6486 13.6157H12.6743L12.4973 13.8268Z" fill="white"/>
<path d="M24.1356 13.5544C23.0872 13.7723 22.032 14.6709 21.6848 15.6513C21.2491 16.8971 21.535 18.2451 22.4337 19.1437C23.7748 20.4781 25.8172 20.4917 27.1379 19.171C27.7983 18.5106 28.1183 17.7413 28.1183 16.8086C28.1183 15.3858 27.2332 14.1399 25.8785 13.677C25.4223 13.5136 24.6054 13.4591 24.1356 13.5544ZM25.3747 14.9433C26.532 15.2905 27.0903 16.5976 26.5456 17.6869C26.2188 18.3472 25.6742 18.7148 24.9458 18.7761C24.4011 18.817 23.9382 18.6604 23.5229 18.2996C22.3656 17.2784 22.7264 15.4743 24.1901 14.9705C24.6258 14.8139 24.9253 14.8139 25.3747 14.9433Z" fill="white"/>
</svg>
