<svg width="31" height="30" viewBox="0 0 31 30" fill="none" xmlns="http://www.w3.org/2000/svg">
<path d="M21.2973 0.0744343C21.0008 0.171223 20.4927 0.691458 20.402 0.999968C20.3475 1.18749 20.3294 2.50623 20.3294 6.287C20.3294 10.0678 20.3475 11.3865 20.402 11.574C20.4988 11.9067 21.0008 12.4088 21.3335 12.5056C21.4908 12.548 21.9869 12.5782 22.6523 12.5782H23.7169V15.3367V18.0951L23.5839 18.0649C23.5052 18.0467 23.3479 18.0104 23.233 17.9923C23.0394 17.956 22.858 17.7443 21.025 15.3488C19.9301 13.9211 18.8957 12.6266 18.7263 12.4754C18.3634 12.1427 17.7403 11.8221 17.2322 11.7011C16.6635 11.568 10.4328 11.568 9.87025 11.7011C9.35001 11.8281 8.6967 12.179 8.31559 12.548C8.14017 12.7113 7.10575 14.0058 6.02293 15.4213L4.05088 17.9923L2.09093 18.9722C0.935527 19.553 0.106782 20.0067 0.0644377 20.0732C-0.0263008 20.2547 -0.0202516 25.2816 0.0765361 25.6083C0.173324 25.941 0.67541 26.443 1.00812 26.5398C1.17145 26.5882 1.72193 26.6124 2.58697 26.6124H3.91175L3.99039 26.9935C4.3352 28.6813 5.97454 30 7.74697 30C9.51939 30 11.1527 28.6873 11.5035 26.9875L11.5822 26.6124H15.006H18.4299L18.5086 26.9875C18.8534 28.6813 20.4927 30 22.2651 30C24.0376 30 25.6769 28.6813 26.0217 26.9875L26.1003 26.6124H27.4251C28.2902 26.6124 28.8406 26.5882 29.004 26.5398C29.3367 26.443 29.8388 25.941 29.9356 25.6083C30.0323 25.2816 30.0384 21.6763 29.9416 21.2165C29.8267 20.6781 29.5424 20.1579 29.1371 19.7526C28.6592 19.2808 28.272 19.0872 27.3586 18.8815L26.6206 18.7182V15.6452V12.5782H27.6852C28.3507 12.5782 28.8467 12.548 29.004 12.5056C29.3367 12.4088 29.8388 11.9067 29.9356 11.574C30.0384 11.2171 30.0384 1.35687 29.9356 1.01207C29.8993 0.878983 29.748 0.637014 29.6029 0.479734C29.1552 -0.0223522 29.3004 -0.0042057 25.1446 0.00184441C22.6765 0.00789261 21.4424 0.0320911 21.2973 0.0744343ZM28.889 1.1149L29.0403 1.26008V6.287V11.3139L28.889 11.4591L28.7439 11.6103H25.1688H21.5937L21.4485 11.4591L21.2973 11.3139V6.287V1.26008L21.4485 1.1149L21.5937 0.963673H25.1688H28.7439L28.889 1.1149ZM17.093 12.6689C17.5104 12.7778 17.7887 12.9351 18.1093 13.2376C18.2424 13.3586 19.2708 14.6591 20.402 16.1291C21.5332 17.5991 22.5071 18.821 22.5615 18.8331C22.616 18.8513 23.7472 19.0993 25.078 19.3836C26.4089 19.6679 27.6308 19.9462 27.7941 20.0006C27.9998 20.0672 28.1934 20.2002 28.4293 20.4362L28.7681 20.7749L28.0542 20.8052C27.0622 20.8475 27.1045 20.781 27.1045 22.2691C27.1045 23.4003 27.1045 23.4124 27.2557 23.5576C27.3949 23.7027 27.4312 23.7088 28.2236 23.7088H29.0403V24.5254C29.0403 25.3179 29.0342 25.3542 28.889 25.4933L28.7439 25.6446H27.4191H26.1003L26.0217 25.2695C25.9794 25.0578 25.8523 24.6948 25.7434 24.465C24.7574 22.4264 22.2712 21.6521 20.3294 22.7833C19.8515 23.0615 19.2224 23.6846 18.9501 24.1443C18.7263 24.5194 18.4541 25.2695 18.4541 25.4994V25.6446H15.0181H11.5822L11.5035 25.2695C11.4612 25.0578 11.3342 24.6948 11.2253 24.465C10.2393 22.4264 7.75302 21.6521 5.81121 22.7833C5.33332 23.0615 4.7042 23.6846 4.43199 24.1443C4.20816 24.5194 3.93595 25.2695 3.93595 25.4994V25.6446H2.60512H1.26824L1.12305 25.4933C0.99602 25.3723 0.971823 25.2876 0.971823 25.0094V24.6767H1.78847C2.58092 24.6767 2.61721 24.6706 2.75635 24.5254L2.90758 24.3803V22.015V19.6558L3.78472 19.2142L4.66791 18.7787L6.7186 16.111C8.73299 13.4977 9.01126 13.165 9.4468 12.8988C9.92469 12.5964 10.0941 12.5843 13.524 12.5843C16.228 12.5782 16.7906 12.5903 17.093 12.6689ZM25.6527 15.5484V18.5186L25.5196 18.4823C25.441 18.4641 25.2232 18.4157 25.0357 18.3794L24.6848 18.3068V15.4455V12.5782H25.1688H25.6527V15.5484ZM1.9397 21.9243V23.7088H1.45576H0.971823V22.1662V20.6237L1.44366 20.3878C1.69773 20.2547 1.9155 20.1458 1.9276 20.1397C1.93365 20.1397 1.9397 20.9443 1.9397 21.9243ZM29.0403 22.257V22.7409H28.5563H28.0724V22.257V21.773H28.5563H29.0403V22.257ZM8.44263 23.3156C9.99123 23.7209 10.9531 25.3058 10.5599 26.8121C10.2876 27.8586 9.4831 28.6692 8.44263 28.9414C6.93032 29.3346 5.33937 28.3728 4.93407 26.8242C4.39569 24.7553 6.37379 22.7772 8.44263 23.3156ZM22.9608 23.3156C24.0013 23.5878 24.8058 24.3984 25.078 25.4449C25.4712 26.9512 24.5094 28.5361 22.9608 28.9414C21.4485 29.3346 19.8575 28.3728 19.4522 26.8242C18.9139 24.7553 20.892 22.7772 22.9608 23.3156Z" fill="white"/>
<path d="M22.9012 3.04453L22.75 3.19576V6.19618V9.19055H23.2339H23.7179V7.98675V6.78296L24.9459 6.75876L26.1678 6.74061L26.5489 6.53494C26.9724 6.30507 27.1599 6.11149 27.3958 5.6578C27.5289 5.39768 27.5531 5.27065 27.5531 4.8351C27.5531 4.39956 27.5289 4.27252 27.3958 4.01241C27.1599 3.55871 26.9724 3.36514 26.5489 3.13527L26.1678 2.92959L24.6132 2.91145L23.0585 2.8933L22.9012 3.04453ZM26.1739 4.02451C26.4945 4.26043 26.5913 4.454 26.5913 4.8351C26.5913 5.2162 26.4945 5.40978 26.1739 5.6457C26.0226 5.76064 25.9077 5.77273 24.8612 5.79088L23.7179 5.80903V4.8351V3.86118L24.8612 3.87932C25.9077 3.89747 26.0226 3.90957 26.1739 4.02451Z" fill="white"/>
<path d="M10.3665 13.6307C10.0398 13.7335 9.76153 13.915 9.52561 14.163C9.42277 14.2719 8.64847 15.3426 7.81368 16.5404C6.18643 18.8693 6.16224 18.9238 6.44655 19.202L6.59173 19.3533H13.5544H20.5171L20.6623 19.202C20.9466 18.9238 20.9224 18.8693 19.2951 16.5404C18.4603 15.3426 17.6739 14.2598 17.5529 14.1328C17.432 14.0057 17.1839 13.8303 17.0025 13.7396L16.6698 13.5763L13.6451 13.5642C11.2738 13.5521 10.5661 13.5702 10.3665 13.6307ZM13.0705 16.4496V18.3854H10.4088C8.94488 18.3854 7.74714 18.3733 7.74714 18.3612C7.74714 18.343 8.30367 17.5325 8.98723 16.5585C10.0277 15.0704 10.2697 14.7619 10.4814 14.647C10.7173 14.5199 10.802 14.5139 11.903 14.5139H13.0705V16.4496ZM16.6274 14.647C16.8391 14.7619 17.0811 15.0704 18.1216 16.5585C18.8051 17.5325 19.3617 18.343 19.3617 18.3612C19.3617 18.3733 18.1639 18.3854 16.7 18.3854H14.0383V16.4496V14.5139H15.2058C16.3068 14.5139 16.3915 14.5199 16.6274 14.647Z" fill="white"/>
<path d="M6.29297 20.8051V21.2891H7.26085H8.22872V20.8051V20.3212H7.26085H6.29297V20.8051Z" fill="white"/>
<path d="M13.0703 20.8051V21.2891H14.0382H15.0061V20.8051V20.3212H14.0382H13.0703V20.8051Z" fill="white"/>
<path d="M7.29437 24.2472C6.73784 24.3924 6.24785 24.7916 5.99378 25.3118C5.87885 25.5599 5.8486 25.7111 5.8486 26.1285C5.84255 26.6003 5.8607 26.6729 6.04823 27.0238C6.2781 27.4472 6.47167 27.6287 6.92536 27.8707C7.18548 28.0038 7.31252 28.028 7.74806 28.028C8.18361 28.028 8.31064 28.0038 8.57076 27.8707C9.02445 27.6287 9.21802 27.4472 9.4479 27.0238C9.63542 26.6729 9.65357 26.6003 9.64752 26.1285C9.64752 25.6929 9.62332 25.5659 9.49024 25.3058C9.25432 24.8521 9.06679 24.6585 8.6615 24.4408C8.2683 24.2351 7.66942 24.1443 7.29437 24.2472ZM8.12916 25.2453C8.75223 25.5054 8.90346 26.316 8.41953 26.8C8.02633 27.1932 7.4698 27.1932 7.0766 26.8C6.32649 26.0559 7.15524 24.834 8.12916 25.2453Z" fill="white"/>
<path d="M21.81 24.2472C21.2535 24.3924 20.7635 24.7916 20.5094 25.3118C20.3945 25.5599 20.3642 25.7111 20.3642 26.1285C20.3582 26.6003 20.3763 26.6729 20.5639 27.0238C20.7937 27.4472 20.9873 27.6287 21.441 27.8707C21.7011 28.0038 21.8281 28.028 22.2637 28.028C22.6992 28.028 22.8263 28.0038 23.0864 27.8707C23.5401 27.6287 23.7336 27.4472 23.9635 27.0238C24.151 26.6729 24.1692 26.6003 24.1631 26.1285C24.1631 25.6929 24.1389 25.5659 24.0059 25.3058C23.7699 24.8521 23.5824 24.6585 23.1771 24.4408C22.7839 24.2351 22.185 24.1443 21.81 24.2472ZM22.6448 25.2453C23.2679 25.5054 23.4191 26.316 22.9352 26.8C22.542 27.1932 21.9854 27.1932 21.5922 26.8C20.8421 26.0559 21.6709 24.834 22.6448 25.2453Z" fill="white"/>
</svg>
