<svg width="114" height="114" viewBox="0 0 114 114" fill="none" xmlns="http://www.w3.org/2000/svg">
<path d="M55.4031 16.7813C54.6121 17.0449 54.5242 17.5899 54.5769 21.6328C54.6472 25.9922 54.5945 25.8692 56.4226 26.0977C58.6023 26.3613 60.4656 27.6621 61.3796 29.5781C61.7664 30.4043 61.8367 30.7735 61.8367 32.2149C61.8367 33.6914 61.7839 34.0078 61.3445 34.8867C60.8171 35.959 59.3582 37.418 58.655 37.5938C58.3738 37.6641 57.9695 37.541 57.4597 37.2422C56.4402 36.6446 56.1765 36.6621 54.9285 37.4004C53.9265 37.9981 53.8738 38.0156 53.2937 37.7696C52.3972 37.3828 51.5007 36.627 50.6921 35.5899C50.0945 34.8516 49.866 34.6758 49.4441 34.6758C48.7937 34.6758 48.2136 35.2207 48.2136 35.836C48.2136 36.4336 49.0398 37.5938 50.1648 38.6133C50.6746 39.0703 51.0085 39.4922 50.9207 39.5801C50.8328 39.6504 42.6414 44.1328 32.6921 49.5293C18.8582 57.0352 14.6218 59.4082 14.5515 59.7071C14.4988 59.9004 14.4812 68.4434 14.4988 78.6563C14.5515 96.2344 14.5691 97.2539 14.8679 97.5528C15.1667 97.8516 17.1003 97.8692 56.5281 97.9219C84.6179 97.957 98.0652 97.9219 98.5046 97.7988C98.9089 97.6758 99.2078 97.4473 99.3308 97.166C99.6472 96.4805 99.6296 61.3946 99.3308 61.0078C99.2078 60.8496 93.8464 57.7559 87.4128 54.1348C80.9792 50.5313 72.4363 45.7149 68.4285 43.4649C64.4207 41.1973 61.0984 39.334 61.0632 39.2988C61.0281 39.2813 61.4148 38.7891 61.9597 38.2442C63.7175 36.3809 64.4558 34.5703 64.4382 32.127C64.4031 29.6309 63.489 27.5918 61.6257 25.8867C60.4832 24.8496 59.6042 24.3574 58.1453 23.9531L57.0906 23.6543L57.0378 20.5254C57.0027 17.9942 56.95 17.3262 56.7214 17.0801C56.3699 16.6758 55.9656 16.5879 55.4031 16.7813ZM65.5105 48.4922C70.0281 52.8164 73.6843 56.3672 73.6492 56.4199C73.4734 56.5781 45.2253 51.9903 45.2781 51.8145C45.3132 51.7266 47.5808 49.2129 50.3406 46.2598L55.3328 40.8633L56.2117 40.793C56.7039 40.7578 57.1433 40.7051 57.2136 40.6875C57.2664 40.6699 61.0105 44.1856 65.5105 48.4922ZM49.6902 43.3242C49.3386 43.7461 45.1375 48.2813 43.1335 50.4082L41.9734 51.6211L34.1511 53.7832C29.8621 54.961 26.3113 55.9102 26.2937 55.875C26.241 55.8223 49.8132 42.9551 49.9539 42.9375C49.989 42.9375 49.8835 43.1133 49.6902 43.3242ZM78.6941 52.0606C85.7605 56.0332 91.4207 59.2852 91.2976 59.2852C91.1746 59.2852 88.0984 58.8106 84.4773 58.2305C80.8562 57.6504 77.8328 57.1758 77.7273 57.1758C77.6394 57.1758 77.5691 57.0703 77.5691 56.9297C77.5691 56.7363 73.3503 52.6055 65.0886 44.7129L64.2976 43.9571L65.0886 44.3965C65.5281 44.6426 71.6453 48.0879 78.6941 52.0606ZM70.1863 58.4942C84.3542 60.7793 96.2019 62.6778 96.5183 62.7305L97.0808 62.836V79.166V95.4961H70.45H43.8191V74.8594C43.8191 55.2949 43.8367 54.2227 44.1355 54.293C44.2937 54.3281 56.0183 56.2266 70.1863 58.4942ZM41.3582 74.9297V95.4961L34.7312 95.461L28.0867 95.4082V76.7051V57.9844L34.5906 56.1914C38.1765 55.2071 41.1472 54.3809 41.2351 54.3809C41.3054 54.3633 41.3582 63.627 41.3582 74.9297ZM25.5378 77.127V95.4961H21.2312H16.9246V78.2695V61.0606L17.5925 60.8848C17.9441 60.7793 19.7898 60.2696 21.6707 59.7422C23.5515 59.2149 25.2039 58.7754 25.3269 58.7754C25.4851 58.7578 25.5378 62.5371 25.5378 77.127Z" fill="black"/>
<path d="M50.166 60.4453C49.7969 60.9199 49.7969 61.0078 49.7969 75.1406V89.3613L50.2363 89.7832C50.7637 90.3106 51.1855 90.3281 51.8008 89.8535L52.2578 89.502V75.0879C52.2578 60.9199 52.2578 60.6914 51.9063 60.3399C51.3965 59.8301 50.6055 59.8828 50.166 60.4453Z" fill="black"/>
<path d="M59.377 61.6582L58.9375 62.0801V75.6328C58.9375 89.2383 58.9551 89.6953 59.5352 90.0821C59.9043 90.3282 60.6953 90.2227 61.0469 89.8711C61.3984 89.5196 61.3984 89.2911 61.3984 75.7559V61.9746L60.9941 61.6055C60.4668 61.0957 59.9043 61.1133 59.377 61.6582Z" fill="black"/>
<path d="M67.1797 62.959L66.7578 63.293V76.5117V89.7305L67.1797 90.0644C67.707 90.4863 68.0938 90.4863 68.6738 90.0293L69.1309 89.6777V76.4941C69.1309 63.5566 69.1309 63.3281 68.7793 62.9766C68.3398 62.5371 67.707 62.5195 67.1797 62.959Z" fill="black"/>
<path d="M75.2148 64.0488L74.7578 64.4004V77.0567C74.7578 89.4668 74.7578 89.6953 75.1094 90.0469C75.6191 90.5567 76.4102 90.5039 76.8496 89.9414C77.2188 89.4844 77.2188 89.3438 77.2188 77.1973C77.2188 68.584 77.166 64.8047 77.0254 64.5059C76.8496 64.1192 76.2168 63.6797 75.8301 63.6797C75.7422 63.6797 75.4785 63.8379 75.2148 64.0488Z" fill="black"/>
<path d="M83.0156 64.9102C82.6641 65.2618 82.6641 65.4903 82.6641 77.5313C82.6641 89.0098 82.6816 89.836 82.9805 90.0996C83.6133 90.6621 84.6152 90.4864 84.9316 89.7481C85.0723 89.3789 85.125 85.9688 85.0898 77.25L85.0371 65.2266L84.6152 64.8926C84.0879 64.4532 83.4551 64.4707 83.0156 64.9102Z" fill="black"/>
<path d="M90.2266 65.7891C89.875 66.1406 89.875 66.3691 89.875 78.0059C89.875 89.6426 89.875 89.8711 90.2266 90.2227C90.4199 90.416 90.7715 90.5742 91.0176 90.5742C91.2637 90.5742 91.6152 90.416 91.8086 90.2227C92.1602 89.8711 92.1602 89.6426 92.1602 78.0059C92.1602 66.3691 92.1602 66.1406 91.8086 65.7891C91.6152 65.5957 91.2637 65.4375 91.0176 65.4375C90.7715 65.4375 90.4199 65.5957 90.2266 65.7891Z" fill="black"/>
<path d="M31.6211 73.1894L31.1641 73.541V76.3535C31.1641 78.9199 31.1992 79.1836 31.5156 79.5C31.9902 79.9746 32.8164 79.957 33.2734 79.4648C33.5898 79.1133 33.625 78.8496 33.625 76.3886C33.625 73.7519 33.6074 73.664 33.1855 73.2597C32.6582 72.7324 32.2363 72.7148 31.6211 73.1894Z" fill="black"/>
<path d="M21.0742 74.5957C20.6172 74.9473 20.6172 75 20.6172 77.1094C20.6172 78.9727 20.6523 79.3066 20.9336 79.5527C21.4434 80.0098 22.2871 79.9395 22.709 79.3945C23.0254 78.9902 23.0781 78.6738 23.0781 77.1973C23.0781 75.2988 22.9023 74.7188 22.252 74.4199C21.6895 74.1563 21.6191 74.1738 21.0742 74.5957Z" fill="black"/>
</svg>
