<svg width="16" height="22" viewBox="0 0 16 22" fill="none" xmlns="http://www.w3.org/2000/svg">
<path d="M0.101562 19.74C2.28823 18.0067 4.24823 16.3133 5.98156 14.66C6.72823 13.9667 7.44823 13.2467 8.14156 12.5C8.86156 11.7533 9.50156 11.02 10.0616 10.3C10.6216 9.57999 11.0616 8.89999 11.3816 8.25999C11.7282 7.59332 11.9016 6.99332 11.9016 6.45999C11.9016 5.60666 11.6216 4.91332 11.0616 4.37999C10.5282 3.81999 9.46156 3.53999 7.86156 3.53999C7.0349 3.53999 6.2349 3.60666 5.46156 3.73999C4.68823 3.87332 3.9949 4.00666 3.38156 4.13999C2.66156 4.32666 1.96823 4.52666 1.30156 4.73999L0.341563 2.17999C1.0349 1.91332 1.82156 1.67332 2.70156 1.45999C3.42156 1.27332 4.26156 1.11332 5.22156 0.97999C6.20823 0.81999 7.24823 0.73999 8.34156 0.73999C9.22156 0.73999 10.0749 0.833323 10.9016 1.01999C11.7549 1.17999 12.5016 1.47332 13.1416 1.89999C13.8082 2.29999 14.3282 2.84666 14.7016 3.53999C15.1016 4.23332 15.3016 5.11332 15.3016 6.17999C15.3016 6.79332 15.1682 7.44666 14.9016 8.13999C14.6349 8.80666 14.2882 9.48666 13.8616 10.18C13.4616 10.8467 12.9816 11.5267 12.4216 12.22C11.8882 12.8867 11.3416 13.5267 10.7816 14.14C9.4749 15.58 7.98156 17.0067 6.30156 18.42C6.94156 18.3933 7.60823 18.3667 8.30156 18.34C8.9149 18.3133 9.60823 18.3 10.3816 18.3C11.1816 18.2733 12.0082 18.26 12.8616 18.26H15.9016V21.26H0.101562V19.74Z" fill="black"/>
</svg>
