<svg width="74" height="74" viewBox="0 0 74 74" fill="none" xmlns="http://www.w3.org/2000/svg">
<rect width="73.9997" height="74" rx="36.9998" fill="#F0F0F0"/>
<path d="M27.8658 37.7949L31.9813 32.8647C32.3984 32.3284 32.607 32.0603 32.7163 31.7595C32.813 31.4934 32.853 31.21 32.8338 30.9275C32.812 30.6082 32.6858 30.2928 32.4335 29.6619L31.4709 27.2555C31.0975 26.3219 30.9108 25.8551 30.5887 25.5492C30.3048 25.2795 29.9492 25.0977 29.5644 25.0254C29.1278 24.9434 28.64 25.0654 27.6645 25.3093L25 25.9755C25 39.5193 34.4803 49 48.0246 49L48.6904 46.3351C48.9343 45.3597 49.0562 44.8718 48.9742 44.4353C48.9019 44.0505 48.7202 43.6949 48.4505 43.411C48.1446 43.0889 47.6777 42.9022 46.7441 42.5287L44.5967 41.6698C43.877 41.3819 43.5172 41.2379 43.1584 41.2269C42.8412 41.2172 42.5263 41.2818 42.2386 41.4157C41.9132 41.5671 41.6392 41.8413 41.091 42.3894L36.9109 46.5037" stroke="black" stroke-width="2" stroke-linecap="round" stroke-linejoin="round"/>
</svg>
